<svg width="32" height="32" viewBox="0 0 32 32" fill="none" xmlns="http://www.w3.org/2000/svg">
<rect width="32" height="32" rx="16" fill="#006FCF"/>
<path fill-rule="evenodd" clip-rule="evenodd" d="M9.36275 11.9462L9.15788 11.3359H7.09817L7.09811 12.4637L6.60512 11.3359H5.04766L3.33203 15.2604H5.28816L5.55005 14.6883H6.12181L6.33138 15.2604H15.4741L15.496 14.846L15.8476 15.2604H18.3334L18.3333 14.9031L18.4097 14.9606L18.4626 14.9994C18.6145 15.1091 18.7844 15.215 18.97 15.2604H20.9006L21.1625 14.6883H21.7675L22.0294 15.2604H24.5155L24.5154 14.8074L24.815 15.2604H26.5063V11.3359H24.7014L24.7014 11.7137L24.4605 11.3359H22.7106L22.7105 12.3438L22.2699 11.3359H19.5266L19.4942 11.3362L19.4526 11.3372C19.0102 11.3516 18.6302 11.4884 18.3334 11.7174V11.3879L9.56764 11.3359L9.36275 11.9462ZM16.111 16.6926L14.5901 16.7447L13.3683 16.7446L12.9777 17.2517L12.5872 16.7446H8.51272V20.6691L12.5872 20.6693L12.9642 20.1277L13.3582 20.6691H15.8186L15.8185 19.733L16.0688 19.7329L16.1093 19.7325C16.3787 19.7269 16.6274 19.6652 16.8429 19.5572L16.8428 20.6691H18.6176L18.6395 20.2547L18.9911 20.6691L26.8363 20.6693C27.7102 20.6568 28.34 20.0995 28.34 19.2529L28.3398 19.2258L28.3389 19.1908C28.3262 18.8197 28.1991 18.5146 27.985 18.2933L27.9815 18.2899L28.6654 16.7966H26.3373L26.287 16.7973C26.2201 16.7991 26.1546 16.8044 26.0907 16.813L26.0982 16.7966H23.7702L23.7286 16.7971C23.48 16.8025 23.2498 16.8567 23.0485 16.9506L23.0485 16.7446H19.6719L19.672 16.9258C19.4489 16.8093 19.1863 16.7446 18.8979 16.7446H16.8428L16.8429 16.8588C16.6315 16.7522 16.3873 16.6926 16.1212 16.6926H16.111Z" fill="white"/>
<path fill-rule="evenodd" clip-rule="evenodd" d="M6.74132 14.6782H7.4224L6.21741 11.9219H5.43155L4.22656 14.6782H4.90764L5.1696 14.1062H6.53175L6.74132 14.6782ZM8.31304 12.4419V14.6782H7.68435V11.9219H8.73216L9.36085 13.7941L9.98954 11.9219H11.0374V14.6782H10.4087V12.4419L9.62281 14.6782H9.04651L8.31304 12.4419ZM23.9255 12.806V14.6782H23.2968V11.9219H24.135L25.1305 13.4821L25.2876 13.7421V11.9219H25.9163V14.6782H25.1305L24.0302 13.014L23.9255 12.806ZM15.2286 20.0869V19.1508H16.0669L16.0915 19.1506C16.655 19.1404 17.0623 18.7786 17.0623 18.2147C17.0623 17.9708 16.9816 17.7497 16.8365 17.5838C16.6775 17.4019 16.4411 17.2862 16.1487 17.2789L16.1193 17.2786L14.5999 17.3306V20.0869H15.2286ZM17.429 20.0869V17.3306H18.896L18.9216 17.3308C19.4831 17.3415 19.839 17.7024 19.839 18.2147C19.839 18.4038 19.7849 18.5714 19.6815 18.7078L19.67 18.7226C19.5499 18.8732 19.3679 18.984 19.131 19.0409L19.1055 19.0468L20.0486 20.0869H19.2627L18.4244 19.0988H18.1101L18.0577 20.0869H17.429ZM22.4585 20.0869V19.5149H20.8868V18.9428H22.4061V18.3707H20.8868V17.8506H22.4585V17.3306H20.2581V20.0869H22.4585ZM24.2655 20.1387L24.2398 20.1389H22.8777V19.5669H24.2922L24.3046 19.5666C24.4575 19.5613 24.6052 19.4574 24.5542 19.2548C24.5542 19.1038 24.456 19.0016 24.3072 18.9951L24.2922 18.9948H23.6635L23.6341 18.9945C23.3517 18.9891 23.1327 18.9059 22.9942 18.7448L22.9902 18.7401C22.883 18.6127 22.8253 18.4376 22.8253 18.2147C22.8253 17.7537 23.181 17.3936 23.7422 17.3828L23.7683 17.3826H25.1828L24.9209 17.9547H23.7159L23.7009 17.955C23.5521 17.9614 23.454 18.0637 23.454 18.2147C23.454 18.3657 23.5521 18.468 23.7009 18.4744L23.7159 18.4747H24.3446L24.3694 18.4749C24.8784 18.483 25.1828 18.743 25.1828 19.2548C25.1828 19.7671 24.827 20.128 24.2655 20.1387ZM26.8326 20.1387L26.807 20.1389H25.4448V19.5669H26.8593L26.8757 19.5666C27.0743 19.5613 27.1723 19.4574 27.1213 19.2548C27.1213 19.1038 27.0232 19.0016 26.8744 18.9951L26.8593 18.9948H26.2307L26.1958 18.9944C26.0115 18.9902 25.8544 18.9527 25.7289 18.8816C25.5129 18.7589 25.3924 18.5366 25.3924 18.2147C25.3924 17.7537 25.7481 17.3936 26.3094 17.3828L26.3354 17.3826H27.75L27.488 17.9547H26.283L26.268 17.955C26.1192 17.9614 26.0211 18.0637 26.0211 18.2147C26.0211 18.3657 26.1192 18.468 26.268 18.4744L26.283 18.4747H26.9117L26.9365 18.4749C27.4455 18.483 27.75 18.743 27.75 19.2548C27.75 19.7671 27.3941 20.128 26.8326 20.1387ZM12.9758 19.1508L12.2947 20.0349H11.5089L12.6091 18.6827L11.5089 17.3306H12.2947L12.9758 18.2147L13.6569 17.3306H14.4427L13.3425 18.6827L14.4427 20.0869H13.6569L12.9758 19.1508ZM9.72759 19.5149V18.9428H11.2469V18.3707H9.72759V17.8506H11.2993V17.3306H9.0989V20.0869H11.2993V19.5149H9.72759ZM20.5201 14.6782L20.782 14.1062H22.1442L22.4061 14.6782H23.0872L21.8822 11.9219H21.044L19.839 14.6782H20.5201ZM19.5246 11.9219H20.2581V12.4939H19.577L19.5536 12.4942C19.1046 12.5042 18.8522 12.8034 18.8438 13.2508L18.8436 13.274V13.3261L18.8438 13.3493C18.8522 13.7967 19.1046 14.0959 19.5536 14.1059L19.577 14.1062H19.7342L19.4723 14.6782L19.4459 14.678C18.6846 14.6666 18.2254 14.1605 18.2151 13.354L18.2149 13.3261L18.2151 13.2481C18.2253 12.4899 18.6852 11.9345 19.4968 11.9221L19.5246 11.9219ZM17.7434 14.6782V11.9739H17.1147V14.6782H17.7434ZM14.9667 13.6901L14.9143 14.6782H14.2856V11.9219H15.7525L15.7782 11.9221C16.3397 11.9328 16.6955 12.2937 16.6955 12.806C16.6955 13.2145 16.443 13.5227 15.9876 13.6322L15.9621 13.6381L16.9051 14.6782H16.1193L15.281 13.6901H14.9667ZM13.8141 14.6782V14.1062H12.2423V13.5341H13.7617V12.962H12.2423V12.4419H13.8141V11.9219H11.6137V14.6782H13.8141ZM5.64111 12.962L5.85067 12.3899L6.06024 12.962L6.32219 13.5861H5.37916L5.64111 12.962ZM21.3059 12.962L21.5155 12.3899L21.7251 12.962L21.987 13.5861H21.044L21.3059 12.962ZM19.2627 18.2147C19.2627 18.0587 19.1579 17.9026 18.896 17.9026L18.1101 17.8506V18.5267H18.896C19.1579 18.5267 19.2627 18.3707 19.2627 18.2147ZM16.0669 18.6307C16.3288 18.6307 16.4336 18.4747 16.4336 18.2667L16.4333 18.2512C16.4257 18.051 16.2699 17.9026 16.0145 17.9026H15.2286V18.6307H16.0669ZM16.1193 12.806C16.1193 12.65 16.0145 12.4939 15.7525 12.4939L14.9667 12.4419V13.118H15.7525C16.0145 13.118 16.1193 12.962 16.1193 12.806Z" fill="#006FCF"/>
</svg>
