<svg width="28" height="27" viewBox="0 0 28 27" fill="none" xmlns="http://www.w3.org/2000/svg">
<path d="M24.3291 19.575L23.3939 18.1406C21.7784 15.7781 20.9282 12.9938 20.9282 10.125C20.9282 7.0875 18.8876 4.64062 16.1668 3.79688C15.9118 3.0375 15.1465 2.53125 14.2963 2.53125C13.4461 2.53125 12.6808 3.0375 12.4258 3.79688C9.705 4.64062 7.66442 7.0875 7.66442 10.125C7.66442 12.9938 6.81418 15.7781 5.19872 18.1406L4.26346 19.575C3.83834 20.25 4.26346 21.0938 5.1137 21.0938H23.4789C24.3291 21.0938 24.7542 20.25 24.3291 19.575Z" stroke="white" stroke-width="2" stroke-miterlimit="10" stroke-linecap="round" stroke-linejoin="round"/>
<path d="M17.6974 21.0938C17.6974 22.95 16.167 24.4688 14.2965 24.4688C12.4259 24.4688 10.8955 22.95 10.8955 21.0938" stroke="white" stroke-width="2" stroke-miterlimit="10" stroke-linecap="round" stroke-linejoin="round"/>
</svg>
