<svg width="28" height="34" viewBox="0 0 28 34" fill="none" xmlns="http://www.w3.org/2000/svg">
<g clip-path="url(#clip0_102_354)">
<path fill-rule="evenodd" clip-rule="evenodd" d="M6.21547 2.61809H9.29747C9.47857 1.1416 10.6768 0 12.1302 0C13.5743 0 14.7665 1.12631 14.9596 2.58753L18.0844 2.61809C18.2588 2.61809 18.3985 2.75764 18.3985 2.93107V6.37579C18.3985 6.54922 18.2588 6.6881 18.0844 6.6881H6.21881C6.04706 6.6881 5.90406 6.54922 5.90406 6.37579V2.93107C5.90336 2.89006 5.91092 2.84932 5.92628 2.81126C5.94164 2.77319 5.9645 2.73856 5.99351 2.7094C6.02252 2.68024 6.0571 2.65715 6.09522 2.64147C6.13333 2.62579 6.17422 2.61784 6.21547 2.61809ZM21.0481 20.1753C24.8886 20.1753 28 23.2705 28 27.0873C28 30.9061 24.8866 34 21.0481 34C17.2076 34 14.0969 30.9041 14.0969 27.0873C14.0969 23.2685 17.2096 20.1753 21.0481 20.1753ZM20.7387 23.3595C21.6205 23.3603 22.466 23.709 23.0896 24.329C23.399 24.6352 23.6441 24.9996 23.8107 25.4008C23.9782 25.8021 24.0642 26.2323 24.064 26.6667C24.064 26.9929 24.0158 27.3112 23.9256 27.6109C23.8514 27.8568 23.7489 28.0934 23.6202 28.3159L24.6213 29.4117C24.6644 29.4586 24.6871 29.5206 24.6843 29.5842C24.6816 29.6477 24.6536 29.7075 24.6066 29.7506L23.6857 30.5865C23.5875 30.6756 23.4345 30.6689 23.3456 30.5719L22.4027 29.5286C22.1816 29.6564 21.9464 29.758 21.7017 29.8316L21.693 29.8336C21.3896 29.9247 21.0688 29.9732 20.7387 29.9732C20.303 29.9727 19.8717 29.8874 19.469 29.722C19.065 29.5555 18.6977 29.3119 18.3878 29.005C18.0785 28.698 17.8333 28.3333 17.6661 27.9319C17.4986 27.5309 17.4125 27.1009 17.4128 26.6667C17.4128 26.2228 17.5037 25.7949 17.6661 25.4035C17.8336 25.002 18.0785 24.6369 18.3871 24.329C18.6955 24.0212 19.0621 23.7771 19.4657 23.6107C19.8693 23.4447 20.3019 23.3593 20.7387 23.3595ZM22.2075 25.2055C22.0164 25.0154 21.7865 24.8606 21.5319 24.7556L21.5199 24.751C21.2717 24.651 21.0065 24.5998 20.7387 24.6001C20.456 24.6001 20.1867 24.6566 19.9448 24.7556C19.6923 24.8603 19.4628 25.0131 19.2692 25.2055C18.8943 25.5789 18.6604 26.0959 18.6604 26.6667C18.6604 26.9478 18.7172 27.2155 18.8161 27.4561C18.9237 27.7093 19.0781 27.9372 19.2692 28.1272C19.4617 28.3179 19.6909 28.4728 19.9435 28.5771C20.1874 28.6761 20.456 28.7326 20.7387 28.7326C21.0221 28.7326 21.2907 28.6761 21.5326 28.5771C21.7859 28.4721 22.0164 28.3173 22.2075 28.1272C22.4007 27.9348 22.5544 27.7069 22.66 27.4561C22.7637 27.2057 22.8168 26.9375 22.8163 26.6667C22.8163 26.3856 22.7602 26.1178 22.66 25.8773L22.6546 25.8646C22.551 25.6181 22.3973 25.3942 22.2075 25.2055ZM2.78864 3.9391H4.38778V5.55847H2.78864C2.46988 5.55847 2.17919 5.68937 1.97002 5.89736C1.76019 6.10601 1.62921 6.39439 1.62921 6.71069V27.6767C1.62921 27.9923 1.76019 28.2814 1.97002 28.49C2.18053 28.6994 2.47189 28.8303 2.78864 28.8303H12.3187C12.4316 29.3911 12.5973 29.9333 12.8112 30.4503H2.78864C2.02348 30.4503 1.32516 30.1373 0.819284 29.6343C0.315418 29.1333 0 28.4389 0 27.6767V6.71069C0 5.94786 0.314081 5.25479 0.818616 4.7531C1.32315 4.25141 2.02081 3.9391 2.78864 3.9391ZM22.672 18.3818V6.71069C22.672 6.39373 22.541 6.10534 22.3318 5.89603C22.1145 5.68006 21.8198 5.55865 21.5126 5.55847H19.9141V3.9391H21.5126C22.277 3.9391 22.9734 4.25208 23.4779 4.7531C23.9864 5.25878 24.3012 5.95184 24.3012 6.71069V18.845C23.7806 18.641 23.2353 18.4848 22.672 18.3818ZM8.85642 17.8462C8.37995 17.8462 7.99236 17.4615 7.99236 16.9877C7.99236 16.5139 8.37995 16.1285 8.85642 16.1285H18.4005C18.8769 16.1285 19.2639 16.5139 19.2639 16.9877C19.2639 17.4615 18.8769 17.8462 18.4005 17.8462H8.85642ZM5.98091 16.0282C6.51418 16.0282 6.94587 16.4581 6.94587 16.9877C6.94587 17.518 6.51418 17.9472 5.98091 17.9472C5.44831 17.9472 5.01661 17.518 5.01661 16.9877C5.01661 16.4581 5.44831 16.0282 5.98091 16.0282ZM5.98091 21.2524C6.51418 21.2524 6.94587 21.6823 6.94587 22.2119C6.94587 22.7422 6.51418 23.1715 5.98091 23.1715C5.44831 23.1715 5.01661 22.7422 5.01661 22.2119C5.01661 21.6823 5.44831 21.2524 5.98091 21.2524ZM8.85709 23.0705C8.38062 23.0705 7.99303 22.6857 7.99303 22.2119C7.99303 21.7381 8.38062 21.3527 8.85709 21.3527H14.2673C13.8171 21.8789 13.43 22.4553 13.1139 23.0705H8.85709ZM5.98091 10.8053C6.51418 10.8053 6.94587 11.2345 6.94587 11.7641C6.94587 12.2944 6.51418 12.7237 5.98091 12.7237C5.44831 12.7237 5.01661 12.2944 5.01661 11.7641C5.01661 11.2345 5.44831 10.8053 5.98091 10.8053ZM8.85642 12.6227C8.37995 12.6227 7.99236 12.2379 7.99236 11.7641C7.99236 11.2897 8.37995 10.905 8.85642 10.905H18.4005C18.8769 10.905 19.2639 11.2897 19.2639 11.7641C19.2639 12.2379 18.8769 12.6227 18.4005 12.6227H8.85642ZM12.0975 1.33961C12.9188 1.33961 13.585 2.00145 13.585 2.81943C13.585 3.63609 12.9188 4.29793 12.0975 4.29793C11.2755 4.29793 10.6099 3.63609 10.6099 2.81943C10.6099 2.00145 11.2755 1.33961 12.0975 1.33961Z" fill="white"/>
</g>
<defs>
<clipPath id="clip0_102_354">
<rect width="28" height="34" fill="white"/>
</clipPath>
</defs>
</svg>
