<svg width="84" height="84" viewBox="0 0 84 84" fill="none" xmlns="http://www.w3.org/2000/svg">
<path fill-rule="evenodd" clip-rule="evenodd" d="M42 84C65.196 84 84 65.196 84 42C84 18.804 65.196 0 42 0C18.804 0 0 18.804 0 42C0 65.196 18.804 84 42 84ZM17.0015 44.0553C16.9661 42.8928 17.579 41.8091 18.5896 41.2265L62.2892 16.1542C62.4056 16.0876 62.5289 16.0423 62.6544 16.0188L62.7145 16.0093C62.993 15.9734 63.2799 16.0415 63.5196 16.211C63.8848 16.4663 64.066 16.9153 63.9781 17.353L55.5293 60.3947C55.309 61.48 54.5975 62.4068 53.5953 62.894C52.5856 63.3831 51.4084 63.3639 50.4218 62.8619L34.8308 54.963L61.9152 18.4466L30.1395 52.578L18.7391 46.7978C17.6954 46.2751 17.03 45.2181 17.0015 44.0553ZM28.3502 55.8823L28.109 55.42L42.7287 62.1216C42.8725 62.2427 40.1407 65.1596 38.047 67.3703C37.5307 67.9203 36.7073 68.1265 35.8749 67.9234C35.0336 67.7134 34.2859 67.1271 33.8759 66.3456L28.3502 55.8823Z" fill="black"/>
</svg>
