<svg width="32" height="32" viewBox="0 0 32 32" fill="none" xmlns="http://www.w3.org/2000/svg">
<rect width="32" height="32" rx="16" fill="#F7F7F7"/>
<path fill-rule="evenodd" clip-rule="evenodd" d="M16.0817 14.5876C16.0817 12.9087 17.6469 12 19.3983 12C20.52 12 21.3154 12.3435 21.3154 12.3435L20.9617 13.9797C20.9617 13.9797 20.2307 13.6093 19.3347 13.6093C18.5406 13.6093 18.1579 13.9588 18.1579 14.2779C18.1579 14.6362 18.6019 14.8721 19.1356 15.1555C19.9389 15.5822 20.9453 16.1167 20.9453 17.3391C20.9453 19.0467 19.4385 20 17.5237 20C16.2317 20 15.2586 19.5697 15.2586 19.5697L15.6201 17.8755C15.6201 17.8755 16.4648 18.3849 17.595 18.3849C18.3913 18.3849 18.8576 18.0204 18.8576 17.6131C18.8576 17.2119 18.38 16.9543 17.821 16.6527C17.0324 16.2272 16.0817 15.7143 16.0817 14.5876ZM24.6985 12.1235C24.2162 12.1235 23.9607 12.3819 23.7732 12.8336L20.8431 19.8726H22.9405L23.3462 18.6995H25.9014L26.1481 19.8726H27.9987L26.3843 12.1235H24.6985ZM24.9713 14.2171L25.5929 17.1249H23.9274L24.9713 14.2171ZM13.5439 12.1235L11.8987 19.8726H13.8986L15.5381 12.1235H13.5439ZM3.33203 12.3705L3.37444 12.1235H6.71801C7.20085 12.1235 7.59531 12.4151 7.67318 12.9262L8.52233 17.3922L10.6033 12.1235H12.7006L9.46207 19.8726H7.35993L5.79176 13.8215C5.64785 13.2632 5.58698 13.0835 4.7325 12.7747C4.06886 12.5055 3.33203 12.3705 3.33203 12.3705Z" fill="#1434CB"/>
</svg>
