<svg width="41" height="32" viewBox="0 0 41 32" fill="none" xmlns="http://www.w3.org/2000/svg">
<path fill-rule="evenodd" clip-rule="evenodd" d="M31.4992 23.3306L32.8349 24.6321C32.4753 26.7213 33.1945 26.8412 35.4379 29.0846C36.688 30.3175 38.2463 32.578 39.9588 30.934C41.6199 29.3414 39.1026 27.5262 38.058 26.4816C34.9584 23.382 35.8146 23.7588 33.5199 23.8444C33.1774 23.3306 32.6123 23.0224 32.3212 22.4915C33.126 21.1044 33.7939 20.2653 33.5542 18.0562C33.3829 16.4807 32.4411 15.0251 31.6019 14.3744C28.9819 12.2852 25.8138 12.5078 23.6047 14.7169C19.3578 18.9467 23.7074 26.2247 29.6155 24.3239C29.9751 24.204 30.2833 24.0499 30.6087 23.8786C30.9512 23.7074 31.1738 23.4848 31.4992 23.3478V23.3306ZM38.9827 30.386C39.6677 29.5127 39.4622 29.4099 38.7772 28.7421L35.9688 25.9336C35.6434 25.6254 34.9584 24.6664 34.3248 24.8376C33.9994 24.9232 33.7768 25.2144 33.7939 25.5911C33.8282 26.0535 35.4721 27.492 35.8318 27.8516L37.921 29.9408C38.2806 30.3175 38.2635 30.4032 38.9656 30.386H38.9827ZM27.2351 14.0662C20.8134 14.871 22.2176 24.3239 28.3311 23.4848C34.5988 22.6114 33.3144 13.3127 27.2351 14.0662Z" fill="white" stroke="white" stroke-width="0.4"/>
<path fill-rule="evenodd" clip-rule="evenodd" d="M7.62732 29.4613H30.6772L30.6601 24.8719C30.2662 25.026 30.0607 25.2144 29.5812 25.3514V28.3482H8.74043V2.11311H29.5812V12.1825L30.6601 12.6619V1H7.62732V29.4442V29.4613Z" fill="white" stroke="white" stroke-width="0.4"/>
<path fill-rule="evenodd" clip-rule="evenodd" d="M4.06543 27.5433H6.97663L6.95951 26.4474L5.17854 26.4302V4.03108L6.92526 3.99683L6.95951 2.90085H4.13393L4.06543 27.5433Z" fill="white" stroke="white" stroke-width="0.4"/>
<path fill-rule="evenodd" clip-rule="evenodd" d="M1 25.163L3.39746 25.1801L3.44884 24.1526L2.11311 24.0841L2.07886 6.37716L3.43171 6.32579V5.2983L1.01712 5.26405L1 25.163Z" fill="white" stroke="white" stroke-width="0.4"/>
<path fill-rule="evenodd" clip-rule="evenodd" d="M11.7372 24.2896L20.8818 24.3068L20.8647 23.1937L11.7543 23.2108L11.7372 24.2896Z" fill="white" stroke="white" stroke-width="0.4"/>
<path fill-rule="evenodd" clip-rule="evenodd" d="M11.7372 18.0391L19.9913 18.0562H20.8647V16.9431L11.7372 16.9603V18.0391Z" fill="white" stroke="white" stroke-width="0.4"/>
<path fill-rule="evenodd" clip-rule="evenodd" d="M11.7543 14.9053H20.8304L20.8818 13.8093H11.7372L11.7543 14.9053Z" fill="white" stroke="white" stroke-width="0.4"/>
<path fill-rule="evenodd" clip-rule="evenodd" d="M11.7372 21.1558H20.8647V20.0598L18.9124 20.077H12.3365H11.7372V21.1558Z" fill="white" stroke="white" stroke-width="0.4"/>
<path fill-rule="evenodd" clip-rule="evenodd" d="M26.7727 19.7345C26.4987 19.4091 25.7624 18.6042 25.3514 18.3987L24.7178 19.1008L26.7899 21.2757C27.4406 20.9503 30.6258 17.5767 30.7628 17.2856L30.0264 16.6349C29.2387 17.2685 27.4406 19.4433 26.7556 19.7173L26.7727 19.7345Z" fill="white" stroke="white" stroke-width="0.4"/>
<path fill-rule="evenodd" clip-rule="evenodd" d="M20.0084 10.9323H21.0188L21.0702 5.1613H20.0427L20.0084 10.9323Z" fill="white" stroke="white" stroke-width="0.4"/>
<path fill-rule="evenodd" clip-rule="evenodd" d="M22.7827 10.9152L23.8102 10.9495L23.8787 6.68542L22.7827 6.70255V10.9152Z" fill="white" stroke="white" stroke-width="0.4"/>
<path fill-rule="evenodd" clip-rule="evenodd" d="M14.4601 10.9323H15.5047L15.5389 7.06216L14.4601 7.02791V10.9323Z" fill="white" stroke="white" stroke-width="0.4"/>
<path fill-rule="evenodd" clip-rule="evenodd" d="M25.5055 10.9495L26.6529 10.9837L26.6871 8.05539L25.5569 8.00401L25.5055 10.9495Z" fill="white" stroke="white" stroke-width="0.4"/>
<path fill-rule="evenodd" clip-rule="evenodd" d="M12.6789 8.36363C12.6618 8.34651 12.6276 8.29514 12.6104 8.32938C12.5933 8.34651 12.5591 8.29514 12.5248 8.29514H11.6686C11.4973 8.87738 11.5316 10.333 11.6343 10.9666L12.7303 10.9837L12.7646 8.60338C12.7303 8.39788 12.6961 8.41501 12.6618 8.36363H12.6789Z" fill="white" stroke="white" stroke-width="0.4"/>
<path fill-rule="evenodd" clip-rule="evenodd" d="M25.6083 10.881H26.5673L26.5844 8.10675H25.5912L25.6083 10.881Z" fill="white" stroke="white" stroke-width="0.4"/>
<path fill-rule="evenodd" clip-rule="evenodd" d="M12.6791 8.36363L11.703 8.38076V10.881L12.6449 10.8638L12.6791 8.36363Z" fill="white" stroke="white" stroke-width="0.4"/>
<path fill-rule="evenodd" clip-rule="evenodd" d="M17.2342 10.9495L18.2788 10.9324L18.3302 8.80889L17.2 8.79176L17.2342 10.9495Z" fill="white" stroke="white" stroke-width="0.4"/>
</svg>
