<svg width="19" height="20" viewBox="0 0 19 20" fill="none" xmlns="http://www.w3.org/2000/svg">
<path d="M6.35833 18.7733V15.7156C6.35833 14.9351 6.96917 14.3023 7.72267 14.3023H10.4771C10.8389 14.3023 11.186 14.4512 11.4418 14.7163C11.6977 14.9813 11.8414 15.3408 11.8414 15.7156V18.7733C11.8391 19.0978 11.962 19.4099 12.1827 19.6402C12.4034 19.8705 12.7037 20 13.017 20H14.8962C15.7738 20.0023 16.6163 19.6428 17.2377 19.0008C17.8591 18.3588 18.2083 17.487 18.2083 16.5778V7.86686C18.2083 7.13246 17.8941 6.43584 17.3503 5.96467L10.9576 0.675869C9.84559 -0.251438 8.25232 -0.221498 7.1735 0.746979L0.92672 5.96467C0.35721 6.42195 0.0168209 7.12064 0 7.86686V16.5689C0 18.4639 1.48291 20 3.31217 20H5.14845C5.79909 20 6.32787 19.4562 6.33259 18.7822L6.35833 18.7733Z" fill="white"/>
</svg>
