<svg width="54" height="46" viewBox="0 0 54 46" fill="none" xmlns="http://www.w3.org/2000/svg">
<path d="M30.8571 0C18.0771 0 7.71429 10.2989 7.71429 23H0L10.0029 32.9411L10.1829 33.2989L20.5714 23H12.8571C12.8571 13.11 20.9057 5.11111 30.8571 5.11111C40.8086 5.11111 48.8571 13.11 48.8571 23C48.8571 32.89 40.8086 40.8889 30.8571 40.8889C25.8943 40.8889 21.3943 38.87 18.1543 35.6244L14.5029 39.2533C18.6943 43.4189 24.4543 46 30.8571 46C43.6371 46 54 35.7011 54 23C54 10.2989 43.6371 0 30.8571 0ZM28.2857 12.7778V25.5556L39.2914 32.0467L41.1429 28.9544L32.1429 23.6389V12.7778H28.2857Z" fill="black"/>
</svg>
