<svg width="25" height="25" viewBox="0 0 25 25" fill="none" xmlns="http://www.w3.org/2000/svg">
<rect width="25" height="25" rx="5" fill="#243883"/>
<path d="M10.5312 18.0832C10.4272 18.0834 10.3242 18.063 10.2282 18.0232C10.1321 17.9834 10.0449 17.925 9.97157 17.8513L5.22157 13.1013C5.07766 12.9519 4.99811 12.7521 5.00003 12.5447C5.00195 12.3373 5.08519 12.139 5.23184 11.9923C5.37849 11.8457 5.57683 11.7624 5.78421 11.7605C5.99159 11.7586 6.19145 11.8382 6.34079 11.9821L10.5312 16.1721L19.4712 7.23206C19.5447 7.15852 19.6319 7.10018 19.728 7.06036C19.824 7.02055 19.9269 7.00003 20.0309 7C20.1349 6.99997 20.2378 7.02041 20.3339 7.06016C20.43 7.09992 20.5172 7.1582 20.5908 7.23169C20.6643 7.30518 20.7227 7.39243 20.7625 7.48847C20.8023 7.58451 20.8228 7.68744 20.8228 7.79141C20.8229 7.89537 20.8024 7.99832 20.7627 8.09439C20.7229 8.19045 20.6646 8.27774 20.5912 8.35128L11.0912 17.8513C11.0178 17.925 10.9305 17.9834 10.8344 18.0233C10.7383 18.0631 10.6352 18.0834 10.5312 18.0832Z" fill="white"/>
</svg>
