<svg width="43" height="50" viewBox="0 0 43 50" fill="none" xmlns="http://www.w3.org/2000/svg">
<path d="M23.8634 49.7345C33.778 48.6239 41.7238 40.6983 42.8546 30.7837C44.3388 17.82 34.2627 6.78474 21.6322 6.6434V0.827916C21.6322 0.504834 21.2283 0.333197 20.9557 0.535123L8.98147 9.32902C8.77954 9.48046 8.77954 9.77326 8.98147 9.9247L20.9557 18.7186C21.2283 18.9205 21.6322 18.7388 21.6322 18.4258V12.6204C30.5068 12.7618 37.6146 20.3138 37.0089 29.3399C36.4939 37.104 30.1635 43.4041 22.3995 43.8988C14.171 44.4238 7.17423 38.5478 5.92228 30.7736C5.69007 29.3298 4.42803 28.2798 2.97416 28.2798C1.16692 28.2798 -0.246567 29.8851 0.0361295 31.6722C1.79289 42.7478 12.0205 51.0571 23.8634 49.7345Z" fill="black"/>
</svg>
