<svg width="27" height="27" viewBox="0 0 27 27" fill="none" xmlns="http://www.w3.org/2000/svg">
<mask id="path-1-outside-1_472_259" maskUnits="userSpaceOnUse" x="0.0888672" y="0" width="27" height="27" fill="black">
<rect fill="white" x="0.0888672" width="27" height="27"/>
<path d="M25.1816 9.53158C24.8955 9.33684 24.5568 9.26902 24.2124 9.33388L22.4432 9.60313C22.1337 8.92006 21.7425 8.27096 21.2695 7.56207L22.3483 6.20999C22.7935 5.65088 22.7074 4.82914 22.1541 4.37768L20.7878 3.26382C20.2316 2.81383 19.4215 2.90389 18.9734 3.46074L17.7895 4.81943C17.1034 4.48384 16.3911 4.23225 15.5926 3.99769L15.5605 2.279C15.5459 1.56053 14.9218 0.977785 14.2452 1.00065L12.4906 1.03534C12.1461 1.04195 11.8249 1.18357 11.5855 1.43516C11.3469 1.68598 11.2191 2.01566 11.2257 2.36384L11.1804 4.1607C10.4666 4.34953 9.76447 4.62835 8.98499 4.98097L7.85952 3.67758C7.39241 3.13613 6.57568 3.07935 6.03846 3.5522L4.71738 4.7177C4.18092 5.18978 4.12544 6.01518 4.59332 6.55811L5.71517 7.97583C5.27506 8.59474 4.90938 9.25931 4.54007 10.0184L2.84821 9.74989C2.5103 9.69607 2.16794 9.78085 1.88989 9.98523C1.61109 10.191 1.42862 10.4942 1.37607 10.8372L1.10457 12.5891C0.994367 13.2995 1.4761 13.967 2.17894 14.0784L3.89488 14.3506C3.95182 15.114 4.10365 15.9048 4.33282 16.7678L2.87453 17.6574C2.26582 18.0292 2.06874 18.8317 2.43658 19.4484L3.34311 20.9664C3.71026 21.5786 4.50143 21.7793 5.11377 21.409L6.6918 20.5386C7.21294 21.0756 7.79757 21.5536 8.47854 22.0566L7.92308 23.6986C7.81142 24.0276 7.83328 24.3802 7.98441 24.693C8.13624 25.0072 8.39897 25.2417 8.72595 25.3553L10.3849 25.9277C10.5222 25.9764 10.6638 26 10.8047 26C10.9988 26 11.1915 25.9543 11.371 25.8658C11.6805 25.7123 11.9126 25.4468 12.0243 25.1178L12.5907 23.4419C13.0345 23.495 13.4169 23.5098 13.7972 23.5113C14.1753 23.5039 14.5599 23.467 15.0008 23.3962L15.6321 25.0455C15.7547 25.37 15.9956 25.6268 16.3109 25.7684C16.6262 25.9085 16.9766 25.9204 17.2992 25.7934L18.937 25.1546C19.6012 24.8964 19.9311 24.1411 19.6756 23.4698L19.1049 21.7497C19.715 21.3233 20.2814 20.8232 20.8901 20.2331L22.3937 21.0695C22.6959 21.2392 23.0462 21.2791 23.3775 21.1817C23.7089 21.0858 23.9833 20.8631 24.1483 20.5591L24.9964 19.0057C25.1614 18.7018 25.2008 18.3507 25.106 18.0158C25.0096 17.6809 24.7907 17.4036 24.4899 17.2354L22.9674 16.2986C23.1892 15.5137 23.3148 14.7333 23.3425 13.9706L25.0475 13.6328C25.7438 13.4941 26.2008 12.8081 26.065 12.1014L25.7263 10.3628C25.6604 10.0206 25.4663 9.72562 25.1816 9.53158ZM22.6314 12.8797C22.4723 12.9114 22.3336 13.0088 22.246 13.146C22.1716 13.2611 22.1394 13.3983 22.1526 13.534C22.1643 14.321 22.0519 15.1391 21.8183 15.9623C21.6475 16.5509 21.8942 17.1676 22.4197 17.4627L23.9481 18.4231L22.973 20.012L21.4695 19.1755C20.9498 18.8849 20.3061 18.9985 19.9002 19.4499C19.4579 19.9427 18.9616 20.3808 18.4273 20.7541C17.9295 21.0993 17.7295 21.7293 17.9426 22.2854L18.5076 24.0277L16.7471 24.6104L15.9383 22.4949C15.8332 22.222 15.5471 22.0626 15.2654 22.1201C14.6742 22.2382 14.2151 22.2942 13.775 22.3016C13.3297 22.3193 12.8722 22.2721 12.2765 22.1777C11.9897 22.132 11.7131 22.3016 11.6189 22.579L10.7722 24.7846L9.05405 24.0912L9.6095 22.4478C9.79997 21.8857 9.57811 21.2646 9.06867 20.9371C8.51467 20.583 8.0023 20.1641 7.54542 19.692C7.2907 19.4294 6.95494 19.2936 6.61703 19.2936C6.39371 19.2936 6.16892 19.3542 5.96746 19.4766L4.3661 20.3411L3.49174 18.6932L4.94934 17.8037C5.46247 17.4924 5.68726 16.8669 5.49602 16.2842C5.22306 15.4448 5.08293 14.6444 5.06907 13.83C5.06907 13.532 4.85452 13.279 4.56402 13.2333L2.28531 12.7767L2.66408 10.9444L4.35448 11.2121C4.94203 11.3007 5.50403 10.9753 5.7325 10.4118C5.97992 9.80618 6.30035 9.2242 6.68644 8.68057C7.03827 8.18337 7.01272 7.52176 6.62295 7.07107L5.50333 5.629L6.95801 4.47237L8.08424 5.77654C8.47548 6.22948 9.12213 6.34304 9.65566 6.05613C10.244 5.73967 10.8585 5.49554 11.4826 5.33028C12.0665 5.17613 12.4664 4.65312 12.454 4.05932L12.5139 2.24403L14.3641 2.30306L14.397 4.02246C14.4087 4.61555 14.8276 5.12224 15.4159 5.2543C16.0436 5.39296 16.6669 5.61275 17.2683 5.90712C17.8157 6.17341 18.4551 6.03326 18.8303 5.56562L20.0375 4.20545L21.417 5.45206L20.3382 6.80344C19.9675 7.26961 19.9675 7.93129 20.3382 8.41442C20.7426 8.93962 21.0856 9.50907 21.3556 10.1051C21.6053 10.6606 22.179 10.9644 22.7643 10.8531L24.5525 10.5949L24.8167 12.4471L22.6314 12.8797Z"/>
</mask>
<path d="M25.1816 9.53158C24.8955 9.33684 24.5568 9.26902 24.2124 9.33388L22.4432 9.60313C22.1337 8.92006 21.7425 8.27096 21.2695 7.56207L22.3483 6.20999C22.7935 5.65088 22.7074 4.82914 22.1541 4.37768L20.7878 3.26382C20.2316 2.81383 19.4215 2.90389 18.9734 3.46074L17.7895 4.81943C17.1034 4.48384 16.3911 4.23225 15.5926 3.99769L15.5605 2.279C15.5459 1.56053 14.9218 0.977785 14.2452 1.00065L12.4906 1.03534C12.1461 1.04195 11.8249 1.18357 11.5855 1.43516C11.3469 1.68598 11.2191 2.01566 11.2257 2.36384L11.1804 4.1607C10.4666 4.34953 9.76447 4.62835 8.98499 4.98097L7.85952 3.67758C7.39241 3.13613 6.57568 3.07935 6.03846 3.5522L4.71738 4.7177C4.18092 5.18978 4.12544 6.01518 4.59332 6.55811L5.71517 7.97583C5.27506 8.59474 4.90938 9.25931 4.54007 10.0184L2.84821 9.74989C2.5103 9.69607 2.16794 9.78085 1.88989 9.98523C1.61109 10.191 1.42862 10.4942 1.37607 10.8372L1.10457 12.5891C0.994367 13.2995 1.4761 13.967 2.17894 14.0784L3.89488 14.3506C3.95182 15.114 4.10365 15.9048 4.33282 16.7678L2.87453 17.6574C2.26582 18.0292 2.06874 18.8317 2.43658 19.4484L3.34311 20.9664C3.71026 21.5786 4.50143 21.7793 5.11377 21.409L6.6918 20.5386C7.21294 21.0756 7.79757 21.5536 8.47854 22.0566L7.92308 23.6986C7.81142 24.0276 7.83328 24.3802 7.98441 24.693C8.13624 25.0072 8.39897 25.2417 8.72595 25.3553L10.3849 25.9277C10.5222 25.9764 10.6638 26 10.8047 26C10.9988 26 11.1915 25.9543 11.371 25.8658C11.6805 25.7123 11.9126 25.4468 12.0243 25.1178L12.5907 23.4419C13.0345 23.495 13.4169 23.5098 13.7972 23.5113C14.1753 23.5039 14.5599 23.467 15.0008 23.3962L15.6321 25.0455C15.7547 25.37 15.9956 25.6268 16.3109 25.7684C16.6262 25.9085 16.9766 25.9204 17.2992 25.7934L18.937 25.1546C19.6012 24.8964 19.9311 24.1411 19.6756 23.4698L19.1049 21.7497C19.715 21.3233 20.2814 20.8232 20.8901 20.2331L22.3937 21.0695C22.6959 21.2392 23.0462 21.2791 23.3775 21.1817C23.7089 21.0858 23.9833 20.8631 24.1483 20.5591L24.9964 19.0057C25.1614 18.7018 25.2008 18.3507 25.106 18.0158C25.0096 17.6809 24.7907 17.4036 24.4899 17.2354L22.9674 16.2986C23.1892 15.5137 23.3148 14.7333 23.3425 13.9706L25.0475 13.6328C25.7438 13.4941 26.2008 12.8081 26.065 12.1014L25.7263 10.3628C25.6604 10.0206 25.4663 9.72562 25.1816 9.53158ZM22.6314 12.8797C22.4723 12.9114 22.3336 13.0088 22.246 13.146C22.1716 13.2611 22.1394 13.3983 22.1526 13.534C22.1643 14.321 22.0519 15.1391 21.8183 15.9623C21.6475 16.5509 21.8942 17.1676 22.4197 17.4627L23.9481 18.4231L22.973 20.012L21.4695 19.1755C20.9498 18.8849 20.3061 18.9985 19.9002 19.4499C19.4579 19.9427 18.9616 20.3808 18.4273 20.7541C17.9295 21.0993 17.7295 21.7293 17.9426 22.2854L18.5076 24.0277L16.7471 24.6104L15.9383 22.4949C15.8332 22.222 15.5471 22.0626 15.2654 22.1201C14.6742 22.2382 14.2151 22.2942 13.775 22.3016C13.3297 22.3193 12.8722 22.2721 12.2765 22.1777C11.9897 22.132 11.7131 22.3016 11.6189 22.579L10.7722 24.7846L9.05405 24.0912L9.6095 22.4478C9.79997 21.8857 9.57811 21.2646 9.06867 20.9371C8.51467 20.583 8.0023 20.1641 7.54542 19.692C7.2907 19.4294 6.95494 19.2936 6.61703 19.2936C6.39371 19.2936 6.16892 19.3542 5.96746 19.4766L4.3661 20.3411L3.49174 18.6932L4.94934 17.8037C5.46247 17.4924 5.68726 16.8669 5.49602 16.2842C5.22306 15.4448 5.08293 14.6444 5.06907 13.83C5.06907 13.532 4.85452 13.279 4.56402 13.2333L2.28531 12.7767L2.66408 10.9444L4.35448 11.2121C4.94203 11.3007 5.50403 10.9753 5.7325 10.4118C5.97992 9.80618 6.30035 9.2242 6.68644 8.68057C7.03827 8.18337 7.01272 7.52176 6.62295 7.07107L5.50333 5.629L6.95801 4.47237L8.08424 5.77654C8.47548 6.22948 9.12213 6.34304 9.65566 6.05613C10.244 5.73967 10.8585 5.49554 11.4826 5.33028C12.0665 5.17613 12.4664 4.65312 12.454 4.05932L12.5139 2.24403L14.3641 2.30306L14.397 4.02246C14.4087 4.61555 14.8276 5.12224 15.4159 5.2543C16.0436 5.39296 16.6669 5.61275 17.2683 5.90712C17.8157 6.17341 18.4551 6.03326 18.8303 5.56562L20.0375 4.20545L21.417 5.45206L20.3382 6.80344C19.9675 7.26961 19.9675 7.93129 20.3382 8.41442C20.7426 8.93962 21.0856 9.50907 21.3556 10.1051C21.6053 10.6606 22.179 10.9644 22.7643 10.8531L24.5525 10.5949L24.8167 12.4471L22.6314 12.8797Z" fill="black"/>
<path d="M25.1816 9.53158C24.8955 9.33684 24.5568 9.26902 24.2124 9.33388L22.4432 9.60313C22.1337 8.92006 21.7425 8.27096 21.2695 7.56207L22.3483 6.20999C22.7935 5.65088 22.7074 4.82914 22.1541 4.37768L20.7878 3.26382C20.2316 2.81383 19.4215 2.90389 18.9734 3.46074L17.7895 4.81943C17.1034 4.48384 16.3911 4.23225 15.5926 3.99769L15.5605 2.279C15.5459 1.56053 14.9218 0.977785 14.2452 1.00065L12.4906 1.03534C12.1461 1.04195 11.8249 1.18357 11.5855 1.43516C11.3469 1.68598 11.2191 2.01566 11.2257 2.36384L11.1804 4.1607C10.4666 4.34953 9.76447 4.62835 8.98499 4.98097L7.85952 3.67758C7.39241 3.13613 6.57568 3.07935 6.03846 3.5522L4.71738 4.7177C4.18092 5.18978 4.12544 6.01518 4.59332 6.55811L5.71517 7.97583C5.27506 8.59474 4.90938 9.25931 4.54007 10.0184L2.84821 9.74989C2.5103 9.69607 2.16794 9.78085 1.88989 9.98523C1.61109 10.191 1.42862 10.4942 1.37607 10.8372L1.10457 12.5891C0.994367 13.2995 1.4761 13.967 2.17894 14.0784L3.89488 14.3506C3.95182 15.114 4.10365 15.9048 4.33282 16.7678L2.87453 17.6574C2.26582 18.0292 2.06874 18.8317 2.43658 19.4484L3.34311 20.9664C3.71026 21.5786 4.50143 21.7793 5.11377 21.409L6.6918 20.5386C7.21294 21.0756 7.79757 21.5536 8.47854 22.0566L7.92308 23.6986C7.81142 24.0276 7.83328 24.3802 7.98441 24.693C8.13624 25.0072 8.39897 25.2417 8.72595 25.3553L10.3849 25.9277C10.5222 25.9764 10.6638 26 10.8047 26C10.9988 26 11.1915 25.9543 11.371 25.8658C11.6805 25.7123 11.9126 25.4468 12.0243 25.1178L12.5907 23.4419C13.0345 23.495 13.4169 23.5098 13.7972 23.5113C14.1753 23.5039 14.5599 23.467 15.0008 23.3962L15.6321 25.0455C15.7547 25.37 15.9956 25.6268 16.3109 25.7684C16.6262 25.9085 16.9766 25.9204 17.2992 25.7934L18.937 25.1546C19.6012 24.8964 19.9311 24.1411 19.6756 23.4698L19.1049 21.7497C19.715 21.3233 20.2814 20.8232 20.8901 20.2331L22.3937 21.0695C22.6959 21.2392 23.0462 21.2791 23.3775 21.1817C23.7089 21.0858 23.9833 20.8631 24.1483 20.5591L24.9964 19.0057C25.1614 18.7018 25.2008 18.3507 25.106 18.0158C25.0096 17.6809 24.7907 17.4036 24.4899 17.2354L22.9674 16.2986C23.1892 15.5137 23.3148 14.7333 23.3425 13.9706L25.0475 13.6328C25.7438 13.4941 26.2008 12.8081 26.065 12.1014L25.7263 10.3628C25.6604 10.0206 25.4663 9.72562 25.1816 9.53158ZM22.6314 12.8797C22.4723 12.9114 22.3336 13.0088 22.246 13.146C22.1716 13.2611 22.1394 13.3983 22.1526 13.534C22.1643 14.321 22.0519 15.1391 21.8183 15.9623C21.6475 16.5509 21.8942 17.1676 22.4197 17.4627L23.9481 18.4231L22.973 20.012L21.4695 19.1755C20.9498 18.8849 20.3061 18.9985 19.9002 19.4499C19.4579 19.9427 18.9616 20.3808 18.4273 20.7541C17.9295 21.0993 17.7295 21.7293 17.9426 22.2854L18.5076 24.0277L16.7471 24.6104L15.9383 22.4949C15.8332 22.222 15.5471 22.0626 15.2654 22.1201C14.6742 22.2382 14.2151 22.2942 13.775 22.3016C13.3297 22.3193 12.8722 22.2721 12.2765 22.1777C11.9897 22.132 11.7131 22.3016 11.6189 22.579L10.7722 24.7846L9.05405 24.0912L9.6095 22.4478C9.79997 21.8857 9.57811 21.2646 9.06867 20.9371C8.51467 20.583 8.0023 20.1641 7.54542 19.692C7.2907 19.4294 6.95494 19.2936 6.61703 19.2936C6.39371 19.2936 6.16892 19.3542 5.96746 19.4766L4.3661 20.3411L3.49174 18.6932L4.94934 17.8037C5.46247 17.4924 5.68726 16.8669 5.49602 16.2842C5.22306 15.4448 5.08293 14.6444 5.06907 13.83C5.06907 13.532 4.85452 13.279 4.56402 13.2333L2.28531 12.7767L2.66408 10.9444L4.35448 11.2121C4.94203 11.3007 5.50403 10.9753 5.7325 10.4118C5.97992 9.80618 6.30035 9.2242 6.68644 8.68057C7.03827 8.18337 7.01272 7.52176 6.62295 7.07107L5.50333 5.629L6.95801 4.47237L8.08424 5.77654C8.47548 6.22948 9.12213 6.34304 9.65566 6.05613C10.244 5.73967 10.8585 5.49554 11.4826 5.33028C12.0665 5.17613 12.4664 4.65312 12.454 4.05932L12.5139 2.24403L14.3641 2.30306L14.397 4.02246C14.4087 4.61555 14.8276 5.12224 15.4159 5.2543C16.0436 5.39296 16.6669 5.61275 17.2683 5.90712C17.8157 6.17341 18.4551 6.03326 18.8303 5.56562L20.0375 4.20545L21.417 5.45206L20.3382 6.80344C19.9675 7.26961 19.9675 7.93129 20.3382 8.41442C20.7426 8.93962 21.0856 9.50907 21.3556 10.1051C21.6053 10.6606 22.179 10.9644 22.7643 10.8531L24.5525 10.5949L24.8167 12.4471L22.6314 12.8797Z" stroke="black" stroke-width="0.2" mask="url(#path-1-outside-1_472_259)"/>
<path d="M13.9687 12.4619C15.3791 12.4619 16.5269 11.3147 16.5269 9.90418C16.5269 8.49368 15.3791 7.34648 13.9687 7.34648C12.5582 7.34648 11.411 8.49369 11.411 9.90418C11.411 11.3147 12.5582 12.4619 13.9687 12.4619ZM13.9687 8.45277C14.7691 8.45277 15.4195 9.10366 15.4195 9.90418C15.4195 10.7047 14.7691 11.3556 13.9687 11.3556C13.1682 11.3556 12.5172 10.7047 12.5172 9.90418C12.5172 9.10369 13.1682 8.45277 13.9687 8.45277ZM13.9687 12.7256C11.4205 12.7256 9.34746 14.798 9.34746 17.3462C9.34746 17.6514 9.59524 17.8999 9.90061 17.8999H18.0361C18.3414 17.8999 18.5898 17.6515 18.5898 17.3462C18.5898 14.7979 16.5168 12.7256 13.9687 12.7256ZM17.44 16.7924H10.4975C10.7634 15.117 12.2187 13.8318 13.9687 13.8318C15.7181 13.8318 17.1733 15.1169 17.44 16.7924Z" fill="black" stroke="black" stroke-width="0.1"/>
</svg>
