<svg width="31" height="30" viewBox="0 0 31 30" fill="none" xmlns="http://www.w3.org/2000/svg">
<g clip-path="url(#clip0_253_581)">
<path d="M17.599 1.01525C17.599 0.457614 18.154 0 18.8477 0C19.5415 0 20.0965 0.452613 20.0965 1.01525V5.45136C20.0965 6.009 19.5415 6.46662 18.8477 6.46662C18.154 6.46662 17.599 6.014 17.599 5.45136V1.01525ZM3.62524 19.5174H6.48608C6.66772 19.5174 6.81657 19.6649 6.81657 19.845V21.9405C6.81657 22.1205 6.66772 22.2681 6.48608 22.2681H3.62524C3.4436 22.2681 3.29476 22.1205 3.29476 21.9405V19.845C3.29476 19.6624 3.4436 19.5174 3.62524 19.5174ZM14.5792 13.5459H17.44C17.5283 13.5459 17.6065 13.5809 17.6671 13.6359C16.5444 14.3311 15.5706 15.2363 14.7987 16.2991H14.5792C14.3975 16.2991 14.2487 16.1515 14.2487 15.9715V13.876C14.2487 13.6934 14.3975 13.5459 14.5792 13.5459ZM9.10221 13.5459H11.9631C12.1447 13.5459 12.2935 13.6934 12.2935 13.8735V15.969C12.2935 16.149 12.1447 16.2966 11.9631 16.2966H9.10221C8.92057 16.2966 8.77173 16.149 8.77173 15.969V13.8735C8.77173 13.6934 8.92057 13.5459 9.10221 13.5459ZM3.62524 13.5459H6.48608C6.66772 13.5459 6.81657 13.6934 6.81657 13.8735V15.969C6.81657 16.149 6.66772 16.2966 6.48608 16.2966H3.62524C3.4436 16.2966 3.29476 16.149 3.29476 15.969V13.8735C3.29476 13.6934 3.4436 13.5459 3.62524 13.5459ZM9.10221 19.5174H11.9631C12.1447 19.5174 12.2935 19.6649 12.2935 19.845V21.9405C12.2935 22.1205 12.1447 22.2681 11.9631 22.2681H9.10221C8.92057 22.2681 8.77173 22.1205 8.77173 21.9405V19.845C8.77173 19.6624 8.92057 19.5174 9.10221 19.5174ZM26.1083 14.8887C29.0625 16.1015 31 18.9597 31 22.1455C31 24.3136 30.112 26.2791 28.679 27.6994C27.2461 29.1198 25.2657 30 23.0759 30C20.8887 30 18.9083 29.1198 17.4728 27.6994C16.0399 26.2766 15.1519 24.3136 15.1519 22.1455C15.1519 18.9847 17.1348 16.0365 20.0839 14.8362C21.9129 14.096 24.2919 14.141 26.1083 14.8887ZM21.8574 21.9355C21.9558 21.828 22.0769 21.7354 22.2081 21.6654V18.2496C22.2081 17.902 22.4932 17.6194 22.8438 17.6194C23.1945 17.6194 23.4821 17.902 23.4821 18.2496V21.6654C23.7142 21.7904 23.9059 21.978 24.0295 22.2081H26.4918C26.845 22.2081 27.1275 22.4906 27.1275 22.8382C27.1275 23.1858 26.8424 23.4684 26.4918 23.4684H24.0295C23.8025 23.8885 23.3585 24.1735 22.8438 24.1735C22.4402 24.1735 22.0794 23.996 21.8322 23.7184C21.3756 23.2008 21.3983 22.4281 21.8574 21.9355ZM27.7809 17.6069C24.4988 14.3536 18.9638 15.2738 17.0439 19.3698C16.6504 20.2126 16.4284 21.1528 16.4284 22.143C16.4284 23.9635 17.1726 25.6114 18.376 26.8042C19.5793 27.997 21.2419 28.7347 23.0785 28.7347C24.915 28.7347 26.5776 27.9945 27.7809 26.8042C28.9843 25.6114 29.7285 23.9635 29.7285 22.143C29.7285 21.1103 29.4889 20.1325 29.0625 19.2623C28.7371 18.6047 28.3031 18.1245 27.7809 17.6069ZM6.39022 1.01525C6.39022 0.457614 6.94523 0 7.639 0C8.33024 0 8.88778 0.452613 8.88778 1.01525V5.45136C8.88778 6.009 8.33024 6.46662 7.639 6.46662C6.94775 6.46662 6.39022 6.014 6.39022 5.45136V1.01525ZM1.37492 9.69993H25.1421V4.59365C25.1421 4.41861 25.0715 4.26607 24.9579 4.15354C24.8444 4.04101 24.6829 3.97099 24.5139 3.97099H22.2358C21.8549 3.97099 21.5446 3.66342 21.5446 3.28582C21.5446 2.90823 21.8549 2.60065 22.2358 2.60065H24.5139C25.0715 2.60065 25.5735 2.82321 25.9393 3.1858C26.3051 3.54839 26.5296 4.04601 26.5296 4.59865V12.7082C26.0755 12.5531 25.6088 12.4281 25.127 12.3356V11.0678H25.1421H1.37492V24.2986C1.37492 24.4736 1.44556 24.6262 1.55908 24.7387C1.67261 24.8512 1.83407 24.9212 2.00309 24.9212H13.2976C13.4263 25.3964 13.5877 25.8615 13.782 26.3066H2.01571C1.46069 26.3066 0.956136 26.084 0.590332 25.7214C0.224528 25.3563 0 24.8612 0 24.3086V4.59865C0 4.04851 0.224528 3.55089 0.590332 3.1858C0.956136 2.82321 1.45817 2.60065 2.01571 2.60065H4.44767C4.82861 2.60065 5.13892 2.90823 5.13892 3.28582C5.13892 3.66342 4.82861 3.97099 4.44767 3.97099H2.01571C1.83911 3.97099 1.68522 4.04101 1.5717 4.15354C1.45817 4.26607 1.38753 4.42611 1.38753 4.59365V9.70243H1.37492V9.69993ZM10.8808 3.96849C10.4998 3.96849 10.1895 3.66092 10.1895 3.28332C10.1895 2.90573 10.4998 2.59815 10.8808 2.59815H15.5202C15.9011 2.59815 16.2114 2.90573 16.2114 3.28332C16.2114 3.66092 15.9011 3.96849 15.5202 3.96849H10.8808Z" fill="white" stroke="white" stroke-width="0.3"/>
</g>
<defs>
<clipPath id="clip0_253_581">
<rect width="31" height="30" fill="white"/>
</clipPath>
</defs>
</svg>
