<svg width="21" height="21" viewBox="0 0 21 21" fill="none" xmlns="http://www.w3.org/2000/svg">
<path d="M4.1822 2.34682L10.1822 8.34682L16.1822 2.365C16.4211 2.12191 16.7507 1.99009 17.0913 2.00137C17.7751 2.04555 18.3198 2.59028 18.364 3.27409C18.3673 3.60246 18.2358 3.91791 18.0004 4.14682L11.9822 10.1832L18.0004 16.2195C18.2358 16.4485 18.3673 16.7639 18.364 17.0923C18.3198 17.7761 17.7751 18.3208 17.0913 18.365C16.7507 18.3763 16.4211 18.2445 16.1822 18.0014L10.1822 12.0195L4.20038 18.0014C3.96147 18.2445 3.63183 18.3763 3.29129 18.365C2.59401 18.3286 2.03674 17.7714 2.00038 17.0741C1.99711 16.7457 2.12856 16.4303 2.36402 16.2014L8.3822 10.1832L2.34583 4.14682C2.11692 3.91482 1.9922 3.59991 2.00038 3.27409C2.04456 2.59028 2.58929 2.04555 3.27311 2.00137C3.61092 1.98537 3.9402 2.11046 4.1822 2.34682Z" fill="black"/>
</svg>
