<svg width="24" height="30" viewBox="0 0 24 30" fill="none" xmlns="http://www.w3.org/2000/svg">
<path fill-rule="evenodd" clip-rule="evenodd" d="M8.71726 19.0659C8.57336 19.3422 8.43501 19.4527 8.24684 19.6903C8.06421 19.9224 7.90371 20.0992 7.68234 20.276C7.31708 20.5689 6.59762 21.1435 6.19915 20.5965C6.29876 20.2318 7.01269 19.8892 7.35028 19.7235L8.00333 19.3919C8.2247 19.2925 8.46821 19.1212 8.71726 19.0659ZM16.3712 16.7728C16.908 16.7728 17.7935 16.69 17.7935 17.0988C17.7935 17.6238 16.6036 17.0878 16.3712 16.7728ZM11.3405 16.6071C11.3737 16.2148 11.9106 15.0433 11.9438 14.64C12.0212 14.6952 13.3771 15.9993 13.4214 16.06L11.8663 16.4745C11.6781 16.5297 11.5232 16.5905 11.3405 16.6071ZM11.5619 12.1314C11.5508 12.1203 11.5398 12.0927 11.5342 12.1038C11.5342 12.1093 10.848 11.2528 10.848 10.2251C10.848 8.83263 11.8773 9.03155 11.9382 9.62831C12.0102 10.3577 11.977 10.6671 11.7722 11.3081C11.7113 11.5015 11.5674 11.8938 11.5619 12.1314ZM9.64702 10.4406C9.64702 11.4296 10.2558 12.3911 10.7705 13.137C11.1247 13.6454 11.1302 13.3912 10.8424 14.2532C10.7539 14.5184 10.6653 14.7892 10.5713 15.071C10.4827 15.3362 10.3942 15.6069 10.3001 15.8888C10.2558 16.0269 10.1949 16.1595 10.1506 16.2866C9.84072 17.1154 9.95694 17.1209 9.50313 17.3364L7.26173 18.425C6.78578 18.6626 6.29323 18.8946 5.86155 19.2096C3.70317 20.7844 6.01651 23.1438 8.23577 21.3646C8.76153 20.9446 8.71726 20.9004 9.03271 20.5744C9.59721 19.9942 10.1728 19.1433 10.5214 18.4029C10.6709 18.0934 10.6598 18.1211 11.1579 17.9443C11.9604 17.668 13.6262 17.2094 14.5006 17.0712C14.7497 17.0325 14.7773 17.1209 15.1481 17.3862C15.6075 17.7177 16.7199 18.5079 17.2512 18.5079C18.5462 18.5079 19 17.9001 19 16.817C19 15.2809 16.4542 15.513 15.3252 15.7175C14.8493 15.8059 14.8493 15.6677 14.2239 15.1428C13.9859 14.9439 12.4917 13.5128 12.4529 13.3138C12.4308 13.1978 12.9233 11.6562 12.9842 11.4131C13.2554 10.3964 13.4214 8.34638 11.977 8.05353C11.2354 7.90434 10.5436 8.0701 10.1838 8.51215C10.0068 8.72764 9.86286 8.99287 9.77984 9.30783C9.70236 9.60621 9.64702 10.0814 9.64702 10.4295V10.4406Z" fill="white"/>
<path fill-rule="evenodd" clip-rule="evenodd" d="M20.8 29H3.2C1.9864 29 1 27.9876 1 26.742V3.25797C1 2.01239 1.9864 1 3.2 1H12.1496H12.1552C12.737 1 13.2967 1.23888 13.7068 1.65976L22.3572 10.5381C22.7673 10.959 23 11.5334 23 12.1306V12.1363V26.742C23 27.9876 22.0136 29 20.8 29ZM3.2 1.89864C2.47406 1.89864 1.88111 2.50721 1.88111 3.25229V26.7363C1.88111 27.4814 2.47406 28.09 3.2 28.09H20.8C21.5259 28.09 22.1189 27.4814 22.1189 26.7363V12.1306C22.1189 11.7723 21.9804 11.4254 21.731 11.1751L13.0806 2.29677C12.8368 2.04083 12.4987 1.89864 12.1496 1.89864C12.1496 1.89864 12.1496 1.89864 12.1441 1.89864H3.19446H3.2Z" fill="white" stroke="white" stroke-width="0.6"/>
</svg>
