<svg width="41" height="35" viewBox="0 0 41 35" fill="none" xmlns="http://www.w3.org/2000/svg">
<path fill-rule="evenodd" clip-rule="evenodd" d="M26.1763 14.2629C25.9811 14.5269 25.2866 15.8757 25.3498 16.1397C29.2584 16.794 34.8774 18.4527 36.8059 21.9022C37.6267 23.3658 37.5578 25.0647 36.737 26.4422C33.9648 31.0912 24.9882 32.5318 19.7136 32.5031C14.4447 32.4744 5.43931 30.8903 3.00001 26.138C1.3872 22.9927 3.74615 20.519 6.25433 18.9234C7.97619 17.8271 10.3868 17.0236 12.476 16.5415C13.027 16.4152 14.5767 16.2086 14.944 16.0364L14.1232 14.2571C10.5475 14.5499 4.77926 16.8227 2.23091 19.5203C1.70287 20.0828 1.20927 20.6739 0.773064 21.489C-0.747914 24.3186 0.135975 26.8153 2.03002 29.0192C2.55232 29.6276 3.16645 30.0868 3.86094 30.6148C7.94749 33.7199 14.7201 34.9826 20.035 34.9998C24.2191 35.0113 28.1622 34.3628 31.7723 33.0312C34.8085 31.912 36.0368 31.0166 38.1375 29.1168C38.5794 28.7208 39.1936 27.7738 39.5494 27.0965C41.5066 23.3773 39.1132 20.0943 36.2262 18.0108C34.952 17.0925 33.3679 16.3119 31.6977 15.6805C30.4465 15.2099 27.5652 14.3145 26.1648 14.2571L26.1763 14.2629Z" fill="white"/>
<path fill-rule="evenodd" clip-rule="evenodd" d="M19.3923 0.0460406C14.8064 0.579818 11.9825 5.50434 14.7547 10.3141C16.8152 13.8898 18.0262 16.7653 19.398 20.5764C19.7653 21.598 20.5057 21.202 20.6664 20.9609C20.6722 20.9552 22.5892 15.9331 23.1057 14.8713C23.8232 13.402 24.4431 12.0532 25.2695 10.6527C25.5393 10.1936 25.8148 9.76308 26.0272 9.258C28.036 4.36218 24.3168 -0.527914 19.3923 0.0460406ZM19.5128 3.97763C16.0231 4.95335 17.4638 10.0099 20.8329 9.16617C22.0611 8.85624 23.1918 7.5304 22.7728 5.88889C22.4572 4.65489 21.1084 3.52994 19.5128 3.97763Z" fill="white"/>
<path fill-rule="evenodd" clip-rule="evenodd" d="M24.1041 20.7256C23.6909 21.3914 23.9204 21.9998 22.8472 23.2223C21.4008 24.8696 18.8467 24.795 17.4922 23.2855C16.6599 22.3614 16.769 21.9539 16.218 20.7371C15.1849 20.7084 11.5919 21.7932 10.9663 23.3773C10.6506 24.1808 11.2074 24.9786 11.5804 25.2828C15.0758 28.1354 25.407 28.1468 28.667 25.2943C31.422 22.8779 26.1359 20.8461 24.1041 20.7256Z" fill="white"/>
</svg>
