<svg width="29" height="18" viewBox="0 0 29 18" fill="none" xmlns="http://www.w3.org/2000/svg">
<g clip-path="url(#clip0_323_2)">
<mask id="mask0_323_2" style="mask-type:luminance" maskUnits="userSpaceOnUse" x="0" y="0" width="29" height="18">
<path d="M1.57361e-06 0L0 18L29 18L29 2.53526e-06L1.57361e-06 0Z" fill="white"/>
</mask>
<g mask="url(#mask0_323_2)">
<path d="M28.6466 8.25545L20.1641 0.333299C20.0547 0.218699 19.9214 0.126199 19.7723 0.0612995C19.6232 -0.00360055 19.4615 -0.0395017 19.297 -0.0442017C19.1325 -0.0489018 18.9687 -0.0223016 18.8156 0.0338984C18.6625 0.0901984 18.5233 0.175 18.4066 0.283C18.29 0.3911 18.1982 0.520198 18.1369 0.662398C18.0757 0.804598 18.0462 0.956999 18.0504 1.1101C18.0546 1.2633 18.0923 1.4141 18.1612 1.5532C18.2301 1.6924 18.3289 1.817 18.4513 1.9194L24.8267 7.8758L1.20988 7.8758C1.04508 7.8664 0.879881 7.8885 0.724681 7.9407C0.569381 7.993 0.427179 8.07426 0.306979 8.17957C0.186679 8.28489 0.0907789 8.41201 0.0252789 8.5531C-0.0402211 8.6942 -0.0740196 8.84629 -0.0740196 9C-0.0740196 9.15371 -0.0402211 9.3058 0.0252788 9.44689C0.0907788 9.58799 0.186679 9.71511 0.306979 9.82042C0.427179 9.92574 0.569381 10.007 0.724681 10.0593C0.879881 10.1115 1.04508 10.1336 1.20988 10.1242L24.9219 10.1242L18.4558 16.0764C18.2297 16.2875 18.1028 16.5735 18.1028 16.8716C18.1028 17.1697 18.2297 17.4556 18.4558 17.6667C18.5668 17.7723 18.6994 17.8561 18.8456 17.9134C18.9919 17.9706 19.149 18 19.3077 18C19.6264 18 19.9324 17.8833 20.1595 17.6752L28.642 9.85001C28.7547 9.74539 28.844 9.62112 28.905 9.48431C28.9659 9.3475 28.9973 9.20084 28.9973 9.05273C28.9973 8.90462 28.9659 8.75796 28.905 8.62115C28.844 8.48434 28.7547 8.36007 28.642 8.25545L28.6466 8.25545Z" fill="white"/>
</g>
</g>
<defs>
<clipPath id="clip0_323_2">
<rect width="29" height="18" fill="white" transform="translate(29 18) rotate(-180)"/>
</clipPath>
</defs>
</svg>
