<svg width="20" height="24" viewBox="0 0 20 24" fill="none" xmlns="http://www.w3.org/2000/svg">
<path d="M13.3444 14.9804L13.3444 14.9811C13.3439 15.013 13.3434 15.0444 13.3429 15.0755C13.3365 15.4758 13.3311 15.8113 13.4203 16.1057C13.5118 16.4074 13.7066 16.6732 14.1489 16.8952L13.3444 14.9804ZM13.3444 14.9804C13.3469 14.7343 13.4909 14.4938 13.7375 14.2965M13.3444 14.9804L13.7375 14.2965M13.7375 14.2965C13.9829 14.1001 14.3147 13.9604 14.6514 13.9154M13.7375 14.2965L14.6514 13.9154M14.6514 13.9154C14.9885 13.8704 15.3151 13.9221 15.5617 14.0879M14.6514 13.9154L15.5617 14.0879M15.5617 14.0879C15.8022 14.2495 15.9871 14.533 16.0232 14.9975M15.5617 14.0879L16.0232 14.9975M16.0232 14.9975V15.6495C16.0232 16.7075 14.902 17.2725 14.149 16.8952L16.0232 14.9975ZM15.0732 20.1151L15.0733 20.1152L15.0767 20.1106L16.2106 18.5849H16.4521C17.4576 18.5849 18.2669 19.4058 18.2669 20.4209V22.2697H17.5908V20.6014C17.5908 20.4649 17.5391 20.351 17.4523 20.2725C17.3681 20.1964 17.2596 20.1613 17.1556 20.1613C17.0517 20.1613 16.9432 20.1964 16.8589 20.2725C16.7721 20.351 16.7204 20.4649 16.7204 20.6014V22.2697H12.7359V20.6014C12.7359 20.4637 12.6825 20.3496 12.5942 20.2714C12.5087 20.1958 12.399 20.1613 12.2944 20.1613C12.1897 20.1613 12.0801 20.1958 11.9945 20.2714C11.9062 20.3496 11.8528 20.4637 11.8528 20.6014V22.2697H11.1768V20.4209C11.1768 19.4064 11.9981 18.5849 12.9915 18.5849H13.2457L14.378 20.1083C14.3783 20.1088 14.3786 20.1092 14.3789 20.1096C14.4634 20.2268 14.5988 20.2775 14.7234 20.2775C14.8488 20.2775 14.9835 20.2267 15.0732 20.1151ZM16.1891 12.3199L16.1779 12.3112L16.1703 12.3074C16.17 12.3071 16.1696 12.3069 16.1692 12.3067L16.1499 12.294C16.133 12.283 16.1092 12.2676 16.0793 12.2494C16.0194 12.2128 15.9354 12.1648 15.831 12.1146C15.6499 12.0277 15.4057 11.9336 15.119 11.8834V1.2837C15.119 1.0442 14.9232 0.85 14.6775 0.85H1.29155C1.0628 0.85 0.85 1.04004 0.85 1.2837V20.1887C0.85 20.441 1.05839 20.6353 1.29155 20.6353H10.3063V22.7163C10.3063 22.9558 10.5022 23.15 10.7479 23.15H18.7085C18.9372 23.15 19.15 22.96 19.15 22.7163V20.4209C19.15 18.9215 17.9439 17.6917 16.4521 17.6917H16.2478L16.0766 17.3909C16.5941 16.9693 16.7905 16.4524 16.8602 16.008C16.897 15.7727 16.8985 15.5578 16.8944 15.3896C16.8934 15.3475 16.892 15.3082 16.8908 15.2725L16.8907 15.2694C16.8895 15.2346 16.8884 15.2039 16.8878 15.1763C16.8868 15.1293 16.8875 15.1009 16.889 15.0851C17.1521 14.4658 17.3197 13.1962 16.1891 12.3199ZM13.351 12.2627L13.3503 12.2632C12.7855 12.6509 12.5176 13.1918 12.415 13.7119C12.314 14.2237 12.3717 14.7204 12.4643 15.0491C12.4719 15.1056 12.47 15.19 12.4678 15.2954C12.457 15.7939 12.4361 16.761 13.3509 17.4467L13.2092 17.6917H12.9915C11.7415 17.6917 10.6852 18.5751 10.3875 19.755H1.7331V1.7303H14.2486V11.8833C13.9295 11.9406 13.633 12.0715 13.351 12.2627ZM4.34648 5.86981H11.6986C11.9486 5.86981 12.1401 5.67126 12.1401 5.42321V3.52755C12.1401 3.29669 11.9528 3.08095 11.6986 3.08095H4.34648C4.10075 3.08095 3.91761 3.30116 3.91761 3.52755V5.42321C3.91761 5.66684 4.10483 5.86981 4.34648 5.86981ZM11.257 3.97415V4.97661H4.78803V3.97415H11.257ZM2.47042 8.37157H13.4986C13.6353 8.37157 13.7484 8.31784 13.8255 8.22959C13.9 8.1443 13.9338 8.03523 13.9338 7.93142C13.9338 7.82761 13.9 7.71854 13.8255 7.63324C13.7484 7.545 13.6353 7.49127 13.4986 7.49127H2.47042C2.33374 7.49127 2.22066 7.545 2.14356 7.63324C2.06903 7.71854 2.03521 7.82761 2.03521 7.93142C2.03521 8.03523 2.06903 8.1443 2.14356 8.22959C2.22066 8.31784 2.33374 8.37157 2.47042 8.37157ZM2.47042 10.8733H13.4986C13.6353 10.8733 13.7484 10.8196 13.8255 10.7314C13.9 10.6461 13.9338 10.537 13.9338 10.4332C13.9338 10.3294 13.9 10.2203 13.8255 10.135C13.7484 10.0468 13.6353 9.99302 13.4986 9.99302H2.47042C2.33374 9.99302 2.22066 10.0468 2.14356 10.135C2.06903 10.2203 2.03521 10.3294 2.03521 10.4332C2.03521 10.537 2.06903 10.6461 2.14356 10.7314C2.22066 10.8196 2.33374 10.8733 2.47042 10.8733ZM2.47042 13.388H11.4704C11.6083 13.388 11.7216 13.3325 11.7984 13.2428C11.8723 13.1562 11.9056 13.0459 11.9056 12.9414C11.9056 12.8368 11.8723 12.7266 11.7984 12.64C11.7216 12.5503 11.6083 12.4948 11.4704 12.4948H2.47042C2.33255 12.4948 2.21921 12.5503 2.14249 12.64C2.0685 12.7266 2.03521 12.8368 2.03521 12.9414C2.03521 13.0459 2.0685 13.1562 2.14249 13.2428C2.21921 13.3325 2.33255 13.388 2.47042 13.388ZM2.47042 15.8897H11.3056C11.4423 15.8897 11.5554 15.836 11.6325 15.7478C11.707 15.6625 11.7408 15.5534 11.7408 15.4496C11.7408 15.3458 11.707 15.2367 11.6325 15.1514C11.5554 15.0632 11.4423 15.0094 11.3056 15.0094H2.47042C2.33374 15.0094 2.22066 15.0632 2.14356 15.1514C2.06903 15.2367 2.03521 15.3458 2.03521 15.4496C2.03521 15.5534 2.06903 15.6625 2.14356 15.7478C2.22066 15.836 2.33374 15.8897 2.47042 15.8897ZM2.47042 18.3915H9.45493C9.59161 18.3915 9.70469 18.3378 9.78179 18.2495C9.85632 18.1642 9.89014 18.0552 9.89014 17.9513C9.89014 17.8475 9.85632 17.7385 9.78179 17.6532C9.70469 17.5649 9.59161 17.5112 9.45493 17.5112H2.47042C2.33374 17.5112 2.22066 17.5649 2.14356 17.6532C2.06903 17.7385 2.03521 17.8475 2.03521 17.9513C2.03521 18.0552 2.06903 18.1642 2.14356 18.2495C2.22066 18.3378 2.33374 18.3915 2.47042 18.3915ZM15.8886 13.2563C15.5351 13.0688 15.129 13.0001 14.7288 13.0238C14.2796 13.0504 13.8279 13.1934 13.4486 13.4248C13.6997 12.9978 14.1668 12.7303 14.6901 12.7303C15.2266 12.7303 15.6331 12.9551 15.8886 13.2563ZM15.4623 18.102L14.7273 19.0989L13.982 18.1017L14.1401 17.8259C14.3133 17.8707 14.4929 17.8886 14.6775 17.8886C14.8906 17.8886 15.0957 17.8602 15.292 17.8029L15.4623 18.102Z" fill="#BBBBBB" stroke="#BBBBBB" stroke-width="0.3"/>
</svg>
