<svg width="42" height="42" viewBox="0 0 42 42" fill="none" xmlns="http://www.w3.org/2000/svg">
<path d="M34.7812 24.2812V22.3125C34.7812 21.9765 34.6533 21.6412 34.3967 21.3846C34.1401 21.128 33.8048 21 33.4688 21H8.53125C8.19525 21 7.85991 21.128 7.60331 21.3846C7.34672 21.6412 7.21875 21.9765 7.21875 22.3125V24.2812M21 24.2812V17.7188" stroke="#5E5C5C" stroke-width="2" stroke-miterlimit="10"/>
<path d="M25.9448 8.83641C25.6407 8.53111 25.2791 8.289 24.881 8.124C24.4828 7.959 24.056 7.87438 23.625 7.875L21 10.5L18.375 7.875C17.944 7.87438 17.5172 7.959 17.1191 8.124C16.7209 8.289 16.3593 8.53111 16.0552 8.83641C15.7499 9.14062 15.5078 9.5022 15.3428 9.90033C15.1778 10.2985 15.0932 10.7253 15.0938 11.1563V15.75H26.9063V11.1563C26.9068 10.7253 26.8222 10.2985 26.6572 9.90033C26.4922 9.5022 26.2501 9.14062 25.9448 8.83641Z" fill="#49B2D6"/>
<path d="M21 11.8125V13.125M21 14.4375V15.75" stroke="#5E5C5C" stroke-width="2" stroke-miterlimit="10"/>
<path d="M21 7.21875C22.8122 7.21875 24.2812 5.74968 24.2812 3.9375C24.2812 2.12532 22.8122 0.65625 21 0.65625C19.1878 0.65625 17.7188 2.12532 17.7188 3.9375C17.7188 5.74968 19.1878 7.21875 21 7.21875Z" fill="#DFE3E6"/>
<path d="M25.9448 34.4302C25.6407 34.1249 25.2791 33.8827 24.881 33.7177C24.4828 33.5528 24.056 33.4681 23.625 33.4688L21 36.0938L18.375 33.4688C17.944 33.4681 17.5172 33.5528 17.1191 33.7177C16.7209 33.8827 16.3593 34.1249 16.0552 34.4302C15.7499 34.7344 15.5078 35.0959 15.3428 35.4941C15.1778 35.8922 15.0932 36.319 15.0938 36.75V41.3438H26.9063V36.75C26.9068 36.319 26.8222 35.8922 26.6572 35.4941C26.4922 35.0959 26.2501 34.7344 25.9448 34.4302Z" fill="#5E5C5C"/>
<path d="M21 37.4062V38.7188M21 40.0312V41.3438" stroke="#474545" stroke-width="2" stroke-miterlimit="10"/>
<path d="M21 32.8125C22.8122 32.8125 24.2812 31.3434 24.2812 29.5312C24.2812 27.7191 22.8122 26.25 21 26.25C19.1878 26.25 17.7188 27.7191 17.7188 29.5312C17.7188 31.3434 19.1878 32.8125 21 32.8125Z" fill="#DFE3E6"/>
<path d="M39.7261 34.4302C39.4219 34.1249 39.0603 33.8827 38.6622 33.7177C38.2641 33.5528 37.8372 33.4681 37.4063 33.4688L34.7813 36.0938L32.1563 33.4688C31.7253 33.4681 31.2984 33.5528 30.9003 33.7177C30.5022 33.8827 30.1406 34.1249 29.8364 34.4302C29.5311 34.7344 29.289 35.0959 29.124 35.4941C28.9591 35.8922 28.8744 36.319 28.875 36.75V41.3438H40.6875V36.75C40.6881 36.319 40.6035 35.8922 40.4385 35.4941C40.2735 35.0959 40.0314 34.7344 39.7261 34.4302Z" fill="#5E5C5C"/>
<path d="M34.7812 37.4062V38.7188M34.7812 40.0312V41.3438" stroke="#474545" stroke-width="2" stroke-miterlimit="10"/>
<path d="M34.7812 32.8125C36.5934 32.8125 38.0625 31.3434 38.0625 29.5312C38.0625 27.7191 36.5934 26.25 34.7812 26.25C32.9691 26.25 31.5 27.7191 31.5 29.5312C31.5 31.3434 32.9691 32.8125 34.7812 32.8125Z" fill="#DFE3E6"/>
<path d="M12.1636 34.4302C11.8594 34.1249 11.4978 33.8827 11.0997 33.7177C10.7016 33.5528 10.2747 33.4681 9.84375 33.4688L7.21875 36.0938L4.59375 33.4688C4.16278 33.4681 3.73594 33.5528 3.33781 33.7177C2.93967 33.8827 2.5781 34.1249 2.27391 34.4302C1.96864 34.7344 1.72655 35.0959 1.56155 35.4941C1.39655 35.8922 1.31191 36.319 1.3125 36.75V41.3438H13.125V36.75C13.1256 36.319 13.041 35.8922 12.876 35.4941C12.711 35.0959 12.4689 34.7344 12.1636 34.4302Z" fill="#5E5C5C"/>
<path d="M7.21875 37.4062V38.7188M7.21875 40.0312V41.3438" stroke="#474545" stroke-width="2" stroke-miterlimit="10"/>
<path d="M7.21875 32.8125C9.03093 32.8125 10.5 31.3434 10.5 29.5312C10.5 27.7191 9.03093 26.25 7.21875 26.25C5.40657 26.25 3.9375 27.7191 3.9375 29.5312C3.9375 31.3434 5.40657 32.8125 7.21875 32.8125Z" fill="#DFE3E6"/>
</svg>
