<svg width="23" height="23" viewBox="0 0 23 23" fill="none" xmlns="http://www.w3.org/2000/svg">
<g clip-path="url(#clip0_3_137)">
<path d="M15.3004 4.45401C14.7703 4.45401 14.3413 4.88301 14.3413 5.41309C14.3413 5.94317 14.7703 6.37217 15.3004 6.37217C15.8282 6.37217 16.2595 6.80118 16.2595 7.33126C16.2595 7.86133 16.6885 8.29034 17.2186 8.29034C17.7486 8.29034 18.1776 7.86133 18.1776 7.33126C18.1754 5.74327 16.8861 4.45401 15.3004 4.45401Z" fill="#528FEA"/>
<path d="M11.5 0C5.14805 0 0 5.14805 0 11.5V11.5629C0.00673828 12.5961 0.882715 13.4159 1.91816 13.4159H2.79863V14.375C2.79863 14.9051 3.22764 15.3341 3.75771 15.3341C4.28779 15.3341 4.7168 14.9051 4.7168 14.375V13.4159H10.5432V21.0818H7.69062C7.16055 21.0818 6.73154 21.5108 6.73154 22.0409C6.73154 22.571 7.16055 23 7.69062 23H15.3565C15.8866 23 16.3156 22.571 16.3156 22.0409C16.3156 21.5108 15.8866 21.0818 15.3565 21.0818H12.4591V13.4159H21.0818C22.115 13.4159 22.9933 12.5961 23 11.5629V11.5C23 5.14805 17.852 0 11.5 0ZM21.0818 11.5L1.91592 11.4933C1.92041 6.2127 6.21943 1.91592 11.5 1.91592C16.7851 1.91592 21.0841 6.21494 21.0818 11.5Z" fill="#528FEA"/>
</g>
<defs>
<clipPath id="clip0_3_137">
<rect width="23" height="23" fill="white"/>
</clipPath>
</defs>
</svg>
