<svg width="34" height="34" viewBox="0 0 34 34" fill="none" xmlns="http://www.w3.org/2000/svg">
<path d="M10.625 9.5625C10.3432 9.5625 10.073 9.45056 9.8737 9.2513C9.67444 9.05204 9.5625 8.78179 9.5625 8.5V4.25C9.5625 3.96821 9.67444 3.69796 9.8737 3.4987C10.073 3.29944 10.3432 3.1875 10.625 3.1875C10.9068 3.1875 11.177 3.29944 11.3763 3.4987C11.5756 3.69796 11.6875 3.96821 11.6875 4.25V8.5C11.6875 8.78179 11.5756 9.05204 11.3763 9.2513C11.177 9.45056 10.9068 9.5625 10.625 9.5625ZM23.375 9.5625C23.0932 9.5625 22.823 9.45056 22.6237 9.2513C22.4244 9.05204 22.3125 8.78179 22.3125 8.5V4.25C22.3125 3.96821 22.4244 3.69796 22.6237 3.4987C22.823 3.29944 23.0932 3.1875 23.375 3.1875C23.6568 3.1875 23.927 3.29944 24.1263 3.4987C24.3256 3.69796 24.4375 3.96821 24.4375 4.25V8.5C24.4375 8.78179 24.3256 9.05204 24.1263 9.2513C23.927 9.45056 23.6568 9.5625 23.375 9.5625Z" fill="white"/>
<path d="M27.625 30.8125H6.375C4.61762 30.8125 3.1875 29.3824 3.1875 27.625V8.5C3.1875 6.74262 4.61762 5.3125 6.375 5.3125H27.625C29.3824 5.3125 30.8125 6.74262 30.8125 8.5V27.625C30.8125 29.3824 29.3824 30.8125 27.625 30.8125ZM6.375 7.4375C6.09321 7.4375 5.82296 7.54944 5.6237 7.7487C5.42444 7.94796 5.3125 8.21821 5.3125 8.5V27.625C5.3125 27.9068 5.42444 28.177 5.6237 28.3763C5.82296 28.5756 6.09321 28.6875 6.375 28.6875H27.625C27.9068 28.6875 28.177 28.5756 28.3763 28.3763C28.5756 28.177 28.6875 27.9068 28.6875 27.625V8.5C28.6875 8.21821 28.5756 7.94796 28.3763 7.7487C28.177 7.54944 27.9068 7.4375 27.625 7.4375H6.375Z" fill="white"/>
<path d="M29.75 13.8125H4.25C3.96821 13.8125 3.69796 13.7006 3.4987 13.5013C3.29944 13.302 3.1875 13.0318 3.1875 12.75C3.1875 12.4682 3.29944 12.198 3.4987 11.9987C3.69796 11.7994 3.96821 11.6875 4.25 11.6875H29.75C30.0318 11.6875 30.302 11.7994 30.5013 11.9987C30.7006 12.198 30.8125 12.4682 30.8125 12.75C30.8125 13.0318 30.7006 13.302 30.5013 13.5013C30.302 13.7006 30.0318 13.8125 29.75 13.8125ZM11.6875 15.9375H13.8125V18.0625H11.6875V15.9375ZM15.9375 15.9375H18.0625V18.0625H15.9375V15.9375ZM20.1875 15.9375H22.3125V18.0625H20.1875V15.9375ZM24.4375 15.9375H26.5625V18.0625H24.4375V15.9375ZM7.4375 20.1875H9.5625V22.3125H7.4375V20.1875ZM11.6875 20.1875H13.8125V22.3125H11.6875V20.1875ZM15.9375 20.1875H18.0625V22.3125H15.9375V20.1875ZM20.1875 20.1875H22.3125V22.3125H20.1875V20.1875ZM24.4375 20.1875H26.5625V22.3125H24.4375V20.1875ZM7.4375 24.4375H9.5625V26.5625H7.4375V24.4375ZM11.6875 24.4375H13.8125V26.5625H11.6875V24.4375ZM15.9375 24.4375H18.0625V26.5625H15.9375V24.4375Z" fill="white"/>
</svg>
