<svg width="301" height="27" viewBox="0 0 301 27" fill="none" xmlns="http://www.w3.org/2000/svg">
<path fill-rule="evenodd" clip-rule="evenodd" d="M13.0742 3.44856C11.9255 2.48669 10.1119 2.48669 8.96314 3.44856L2.85855 8.56018C2.70898 8.68542 2.60837 8.84856 2.57098 9.02648C1.83981 12.506 1.78583 16.0681 2.41134 19.5632L2.55981 20.3928H6.48725V13.2409C6.48725 12.7639 6.93032 12.3773 7.47687 12.3773H14.5605C15.1071 12.3773 15.5501 12.7639 15.5501 13.2409V20.3928H19.4776L19.626 19.5632C20.2516 16.0681 20.1976 12.506 19.4664 9.02648C19.429 8.84856 19.3284 8.68542 19.1788 8.56018L13.0742 3.44856ZM7.59278 2.20233C9.5073 0.599223 12.5301 0.599223 14.4446 2.20233L20.5492 7.31395C20.9986 7.69024 21.3009 8.18039 21.4132 8.71496C22.1845 12.3853 22.2414 16.1429 21.5816 19.8297L21.3431 21.1625C21.2444 21.7137 20.7004 22.12 20.0612 22.12H14.5605C14.014 22.12 13.5709 21.7334 13.5709 21.2564V14.1045H8.4665V21.2564C8.4665 21.7334 8.02343 22.12 7.47687 22.12H1.97623C1.33695 22.12 0.792942 21.7137 0.694303 21.1625L0.455786 19.8297C-0.204028 16.1429 -0.147095 12.3853 0.624193 8.71496C0.736526 8.18039 1.0388 7.69024 1.48818 7.31395L7.59278 2.20233Z" fill="#AFAFAF"/>
<path fill-rule="evenodd" clip-rule="evenodd" d="M286.236 6.28651C286.236 3.36685 288.49 1 291.271 1C294.052 1 296.307 3.36685 296.307 6.28651C296.307 9.20617 294.052 11.573 291.271 11.573C288.49 11.573 286.236 9.20617 286.236 6.28651ZM291.271 2.86583C289.472 2.86583 288.013 4.39732 288.013 6.28651C288.013 8.17571 289.472 9.7072 291.271 9.7072C293.071 9.7072 294.529 8.17571 294.529 6.28651C294.529 4.39732 293.071 2.86583 291.271 2.86583Z" fill="#AFAFAF"/>
<path fill-rule="evenodd" clip-rule="evenodd" d="M286.532 15.3047C285.06 15.3047 283.866 16.5577 283.866 18.1034V19.5815C283.866 19.604 283.882 19.6232 283.903 19.6268C288.783 20.4633 293.76 20.4633 298.639 19.6268C298.661 19.6232 298.676 19.604 298.676 19.5815V18.1034C298.676 16.5577 297.483 15.3047 296.01 15.3047H295.606C295.575 15.3047 295.544 15.3099 295.515 15.32L294.489 15.6716C292.398 16.3884 290.144 16.3884 288.053 15.6716L287.028 15.32C286.998 15.3099 286.967 15.3047 286.936 15.3047H286.532ZM282.089 18.1034C282.089 15.5273 284.078 13.4389 286.532 13.4389H286.936C287.154 13.4389 287.372 13.4751 287.579 13.5464L288.605 13.8979C290.337 14.4919 292.205 14.4919 293.937 13.8979L294.963 13.5464C295.171 13.4751 295.388 13.4389 295.606 13.4389H296.01C298.464 13.4389 300.453 15.5273 300.453 18.1034V19.5815C300.453 20.5184 299.807 21.3173 298.926 21.4683C293.856 22.3372 288.686 22.3372 283.616 21.4683C282.736 21.3173 282.089 20.5184 282.089 19.5815V18.1034Z" fill="#AFAFAF"/>
<path d="M152.089 7C151.958 6.99997 151.827 7.02581 151.706 7.07605C151.585 7.12629 151.475 7.19995 151.382 7.29282C151.289 7.38568 151.215 7.49594 151.165 7.61728C151.115 7.73862 151.089 7.86867 151.089 8V11.2676L149.991 10.6338C149.761 10.5013 149.489 10.4655 149.232 10.5343C148.976 10.603 148.758 10.7706 148.625 11.0003C148.493 11.2299 148.457 11.5028 148.526 11.759C148.594 12.0151 148.762 12.2335 148.991 12.3662L151.589 13.8662C151.741 13.954 151.913 14.0002 152.089 14.0002C152.264 14.0002 152.437 13.954 152.589 13.8662C152.741 13.7784 152.867 13.6521 152.955 13.5001C153.043 13.348 153.089 13.1756 153.089 13V8C153.089 7.86867 153.063 7.73862 153.013 7.61728C152.963 7.49594 152.889 7.38568 152.796 7.29282C152.703 7.19995 152.593 7.12629 152.472 7.07605C152.35 7.02581 152.22 6.99997 152.089 7ZM152.089 3C150.111 3 148.178 3.58649 146.533 4.6853C144.889 5.78412 143.607 7.3459 142.85 9.17317C142.093 11.0004 141.895 13.0111 142.281 14.9509C142.667 16.8907 143.619 18.6725 145.018 20.0711C146.416 21.4696 148.198 22.422 150.138 22.8079C152.078 23.1937 154.088 22.9957 155.916 22.2388C157.743 21.4819 159.305 20.2002 160.404 18.5557C161.502 16.9112 162.089 14.9778 162.089 13C162.086 10.3488 161.031 7.80699 159.157 5.93228C157.282 4.05758 154.74 3.00303 152.089 3ZM152.089 21C150.507 21 148.96 20.5308 147.644 19.6518C146.329 18.7727 145.303 17.5233 144.698 16.0615C144.092 14.5997 143.934 12.9911 144.243 11.4393C144.551 9.88743 145.313 8.46197 146.432 7.34315C147.551 6.22433 148.976 5.4624 150.528 5.15372C152.08 4.84504 153.689 5.00346 155.15 5.60896C156.612 6.21447 157.862 7.23984 158.741 8.55544C159.62 9.87103 160.089 11.4177 160.089 13C160.086 15.121 159.243 17.1544 157.743 18.6542C156.243 20.1539 154.21 20.9976 152.089 21Z" fill="#AFAFAF"/>
<mask id="path-4-outside-1_472_227" maskUnits="userSpaceOnUse" x="209.089" y="0" width="27" height="27" fill="black">
<rect fill="white" x="209.089" width="27" height="27"/>
<path d="M234.182 9.53158C233.896 9.33684 233.557 9.26902 233.212 9.33388L231.443 9.60313C231.134 8.92006 230.743 8.27096 230.27 7.56207L231.348 6.20999C231.794 5.65088 231.707 4.82914 231.154 4.37768L229.788 3.26382C229.232 2.81383 228.421 2.90389 227.973 3.46074L226.789 4.81943C226.103 4.48384 225.391 4.23225 224.593 3.99769L224.56 2.279C224.546 1.56053 223.922 0.977785 223.245 1.00065L221.491 1.03534C221.146 1.04195 220.825 1.18357 220.586 1.43516C220.347 1.68598 220.219 2.01566 220.226 2.36384L220.18 4.1607C219.467 4.34953 218.764 4.62835 217.985 4.98097L216.86 3.67758C216.392 3.13613 215.576 3.07935 215.038 3.5522L213.717 4.7177C213.181 5.18978 213.125 6.01518 213.593 6.55811L214.715 7.97583C214.275 8.59474 213.909 9.25931 213.54 10.0184L211.848 9.74989C211.51 9.69607 211.168 9.78085 210.89 9.98523C210.611 10.191 210.429 10.4942 210.376 10.8372L210.105 12.5891C209.994 13.2995 210.476 13.967 211.179 14.0784L212.895 14.3506C212.952 15.114 213.104 15.9048 213.333 16.7678L211.875 17.6574C211.266 18.0292 211.069 18.8317 211.437 19.4484L212.343 20.9664C212.71 21.5786 213.501 21.7793 214.114 21.409L215.692 20.5386C216.213 21.0756 216.798 21.5536 217.479 22.0566L216.923 23.6986C216.811 24.0276 216.833 24.3802 216.984 24.693C217.136 25.0072 217.399 25.2417 217.726 25.3553L219.385 25.9277C219.522 25.9764 219.664 26 219.805 26C219.999 26 220.192 25.9543 220.371 25.8658C220.68 25.7123 220.913 25.4468 221.024 25.1178L221.591 23.4419C222.034 23.495 222.417 23.5098 222.797 23.5113C223.175 23.5039 223.56 23.467 224.001 23.3962L224.632 25.0455C224.755 25.37 224.996 25.6268 225.311 25.7684C225.626 25.9085 225.977 25.9204 226.299 25.7934L227.937 25.1546C228.601 24.8964 228.931 24.1411 228.676 23.4698L228.105 21.7497C228.715 21.3233 229.281 20.8232 229.89 20.2331L231.394 21.0695C231.696 21.2392 232.046 21.2791 232.378 21.1817C232.709 21.0858 232.983 20.8631 233.148 20.5591L233.996 19.0057C234.161 18.7018 234.201 18.3507 234.106 18.0158C234.01 17.6809 233.791 17.4036 233.49 17.2354L231.967 16.2986C232.189 15.5137 232.315 14.7333 232.343 13.9706L234.048 13.6328C234.744 13.4941 235.201 12.8081 235.065 12.1014L234.726 10.3628C234.66 10.0206 234.466 9.72562 234.182 9.53158ZM231.631 12.8797C231.472 12.9114 231.334 13.0088 231.246 13.146C231.172 13.2611 231.139 13.3983 231.153 13.534C231.164 14.321 231.052 15.1391 230.818 15.9623C230.648 16.5509 230.894 17.1676 231.42 17.4627L232.948 18.4231L231.973 20.012L230.469 19.1755C229.95 18.8849 229.306 18.9985 228.9 19.4499C228.458 19.9427 227.962 20.3808 227.427 20.7541C226.93 21.0993 226.73 21.7293 226.943 22.2854L227.508 24.0277L225.747 24.6104L224.938 22.4949C224.833 22.222 224.547 22.0626 224.265 22.1201C223.674 22.2382 223.215 22.2942 222.775 22.3016C222.33 22.3193 221.872 22.2721 221.277 22.1777C220.99 22.132 220.713 22.3016 220.619 22.579L219.772 24.7846L218.054 24.0912L218.61 22.4478C218.8 21.8857 218.578 21.2646 218.069 20.9371C217.515 20.583 217.002 20.1641 216.545 19.692C216.291 19.4294 215.955 19.2936 215.617 19.2936C215.394 19.2936 215.169 19.3542 214.967 19.4766L213.366 20.3411L212.492 18.6932L213.949 17.8037C214.462 17.4924 214.687 16.8669 214.496 16.2842C214.223 15.4448 214.083 14.6444 214.069 13.83C214.069 13.532 213.855 13.279 213.564 13.2333L211.285 12.7767L211.664 10.9444L213.354 11.2121C213.942 11.3007 214.504 10.9753 214.733 10.4118C214.98 9.80618 215.3 9.2242 215.686 8.68057C216.038 8.18337 216.013 7.52176 215.623 7.07107L214.503 5.629L215.958 4.47237L217.084 5.77654C217.475 6.22948 218.122 6.34304 218.656 6.05613C219.244 5.73967 219.858 5.49554 220.483 5.33028C221.066 5.17613 221.466 4.65312 221.454 4.05932L221.514 2.24403L223.364 2.30306L223.397 4.02246C223.409 4.61555 223.828 5.12224 224.416 5.2543C225.044 5.39296 225.667 5.61275 226.268 5.90712C226.816 6.17341 227.455 6.03326 227.83 5.56562L229.037 4.20545L230.417 5.45206L229.338 6.80344C228.967 7.26961 228.967 7.93129 229.338 8.41442C229.743 8.93962 230.086 9.50907 230.356 10.1051C230.605 10.6606 231.179 10.9644 231.764 10.8531L233.553 10.5949L233.817 12.4471L231.631 12.8797Z"/>
</mask>
<path d="M234.182 9.53158C233.896 9.33684 233.557 9.26902 233.212 9.33388L231.443 9.60313C231.134 8.92006 230.743 8.27096 230.27 7.56207L231.348 6.20999C231.794 5.65088 231.707 4.82914 231.154 4.37768L229.788 3.26382C229.232 2.81383 228.421 2.90389 227.973 3.46074L226.789 4.81943C226.103 4.48384 225.391 4.23225 224.593 3.99769L224.56 2.279C224.546 1.56053 223.922 0.977785 223.245 1.00065L221.491 1.03534C221.146 1.04195 220.825 1.18357 220.586 1.43516C220.347 1.68598 220.219 2.01566 220.226 2.36384L220.18 4.1607C219.467 4.34953 218.764 4.62835 217.985 4.98097L216.86 3.67758C216.392 3.13613 215.576 3.07935 215.038 3.5522L213.717 4.7177C213.181 5.18978 213.125 6.01518 213.593 6.55811L214.715 7.97583C214.275 8.59474 213.909 9.25931 213.54 10.0184L211.848 9.74989C211.51 9.69607 211.168 9.78085 210.89 9.98523C210.611 10.191 210.429 10.4942 210.376 10.8372L210.105 12.5891C209.994 13.2995 210.476 13.967 211.179 14.0784L212.895 14.3506C212.952 15.114 213.104 15.9048 213.333 16.7678L211.875 17.6574C211.266 18.0292 211.069 18.8317 211.437 19.4484L212.343 20.9664C212.71 21.5786 213.501 21.7793 214.114 21.409L215.692 20.5386C216.213 21.0756 216.798 21.5536 217.479 22.0566L216.923 23.6986C216.811 24.0276 216.833 24.3802 216.984 24.693C217.136 25.0072 217.399 25.2417 217.726 25.3553L219.385 25.9277C219.522 25.9764 219.664 26 219.805 26C219.999 26 220.192 25.9543 220.371 25.8658C220.68 25.7123 220.913 25.4468 221.024 25.1178L221.591 23.4419C222.034 23.495 222.417 23.5098 222.797 23.5113C223.175 23.5039 223.56 23.467 224.001 23.3962L224.632 25.0455C224.755 25.37 224.996 25.6268 225.311 25.7684C225.626 25.9085 225.977 25.9204 226.299 25.7934L227.937 25.1546C228.601 24.8964 228.931 24.1411 228.676 23.4698L228.105 21.7497C228.715 21.3233 229.281 20.8232 229.89 20.2331L231.394 21.0695C231.696 21.2392 232.046 21.2791 232.378 21.1817C232.709 21.0858 232.983 20.8631 233.148 20.5591L233.996 19.0057C234.161 18.7018 234.201 18.3507 234.106 18.0158C234.01 17.6809 233.791 17.4036 233.49 17.2354L231.967 16.2986C232.189 15.5137 232.315 14.7333 232.343 13.9706L234.048 13.6328C234.744 13.4941 235.201 12.8081 235.065 12.1014L234.726 10.3628C234.66 10.0206 234.466 9.72562 234.182 9.53158ZM231.631 12.8797C231.472 12.9114 231.334 13.0088 231.246 13.146C231.172 13.2611 231.139 13.3983 231.153 13.534C231.164 14.321 231.052 15.1391 230.818 15.9623C230.648 16.5509 230.894 17.1676 231.42 17.4627L232.948 18.4231L231.973 20.012L230.469 19.1755C229.95 18.8849 229.306 18.9985 228.9 19.4499C228.458 19.9427 227.962 20.3808 227.427 20.7541C226.93 21.0993 226.73 21.7293 226.943 22.2854L227.508 24.0277L225.747 24.6104L224.938 22.4949C224.833 22.222 224.547 22.0626 224.265 22.1201C223.674 22.2382 223.215 22.2942 222.775 22.3016C222.33 22.3193 221.872 22.2721 221.277 22.1777C220.99 22.132 220.713 22.3016 220.619 22.579L219.772 24.7846L218.054 24.0912L218.61 22.4478C218.8 21.8857 218.578 21.2646 218.069 20.9371C217.515 20.583 217.002 20.1641 216.545 19.692C216.291 19.4294 215.955 19.2936 215.617 19.2936C215.394 19.2936 215.169 19.3542 214.967 19.4766L213.366 20.3411L212.492 18.6932L213.949 17.8037C214.462 17.4924 214.687 16.8669 214.496 16.2842C214.223 15.4448 214.083 14.6444 214.069 13.83C214.069 13.532 213.855 13.279 213.564 13.2333L211.285 12.7767L211.664 10.9444L213.354 11.2121C213.942 11.3007 214.504 10.9753 214.733 10.4118C214.98 9.80618 215.3 9.2242 215.686 8.68057C216.038 8.18337 216.013 7.52176 215.623 7.07107L214.503 5.629L215.958 4.47237L217.084 5.77654C217.475 6.22948 218.122 6.34304 218.656 6.05613C219.244 5.73967 219.858 5.49554 220.483 5.33028C221.066 5.17613 221.466 4.65312 221.454 4.05932L221.514 2.24403L223.364 2.30306L223.397 4.02246C223.409 4.61555 223.828 5.12224 224.416 5.2543C225.044 5.39296 225.667 5.61275 226.268 5.90712C226.816 6.17341 227.455 6.03326 227.83 5.56562L229.037 4.20545L230.417 5.45206L229.338 6.80344C228.967 7.26961 228.967 7.93129 229.338 8.41442C229.743 8.93962 230.086 9.50907 230.356 10.1051C230.605 10.6606 231.179 10.9644 231.764 10.8531L233.553 10.5949L233.817 12.4471L231.631 12.8797Z" fill="#AFAFAF"/>
<path d="M234.182 9.53158C233.896 9.33684 233.557 9.26902 233.212 9.33388L231.443 9.60313C231.134 8.92006 230.743 8.27096 230.27 7.56207L231.348 6.20999C231.794 5.65088 231.707 4.82914 231.154 4.37768L229.788 3.26382C229.232 2.81383 228.421 2.90389 227.973 3.46074L226.789 4.81943C226.103 4.48384 225.391 4.23225 224.593 3.99769L224.56 2.279C224.546 1.56053 223.922 0.977785 223.245 1.00065L221.491 1.03534C221.146 1.04195 220.825 1.18357 220.586 1.43516C220.347 1.68598 220.219 2.01566 220.226 2.36384L220.18 4.1607C219.467 4.34953 218.764 4.62835 217.985 4.98097L216.86 3.67758C216.392 3.13613 215.576 3.07935 215.038 3.5522L213.717 4.7177C213.181 5.18978 213.125 6.01518 213.593 6.55811L214.715 7.97583C214.275 8.59474 213.909 9.25931 213.54 10.0184L211.848 9.74989C211.51 9.69607 211.168 9.78085 210.89 9.98523C210.611 10.191 210.429 10.4942 210.376 10.8372L210.105 12.5891C209.994 13.2995 210.476 13.967 211.179 14.0784L212.895 14.3506C212.952 15.114 213.104 15.9048 213.333 16.7678L211.875 17.6574C211.266 18.0292 211.069 18.8317 211.437 19.4484L212.343 20.9664C212.71 21.5786 213.501 21.7793 214.114 21.409L215.692 20.5386C216.213 21.0756 216.798 21.5536 217.479 22.0566L216.923 23.6986C216.811 24.0276 216.833 24.3802 216.984 24.693C217.136 25.0072 217.399 25.2417 217.726 25.3553L219.385 25.9277C219.522 25.9764 219.664 26 219.805 26C219.999 26 220.192 25.9543 220.371 25.8658C220.68 25.7123 220.913 25.4468 221.024 25.1178L221.591 23.4419C222.034 23.495 222.417 23.5098 222.797 23.5113C223.175 23.5039 223.56 23.467 224.001 23.3962L224.632 25.0455C224.755 25.37 224.996 25.6268 225.311 25.7684C225.626 25.9085 225.977 25.9204 226.299 25.7934L227.937 25.1546C228.601 24.8964 228.931 24.1411 228.676 23.4698L228.105 21.7497C228.715 21.3233 229.281 20.8232 229.89 20.2331L231.394 21.0695C231.696 21.2392 232.046 21.2791 232.378 21.1817C232.709 21.0858 232.983 20.8631 233.148 20.5591L233.996 19.0057C234.161 18.7018 234.201 18.3507 234.106 18.0158C234.01 17.6809 233.791 17.4036 233.49 17.2354L231.967 16.2986C232.189 15.5137 232.315 14.7333 232.343 13.9706L234.048 13.6328C234.744 13.4941 235.201 12.8081 235.065 12.1014L234.726 10.3628C234.66 10.0206 234.466 9.72562 234.182 9.53158ZM231.631 12.8797C231.472 12.9114 231.334 13.0088 231.246 13.146C231.172 13.2611 231.139 13.3983 231.153 13.534C231.164 14.321 231.052 15.1391 230.818 15.9623C230.648 16.5509 230.894 17.1676 231.42 17.4627L232.948 18.4231L231.973 20.012L230.469 19.1755C229.95 18.8849 229.306 18.9985 228.9 19.4499C228.458 19.9427 227.962 20.3808 227.427 20.7541C226.93 21.0993 226.73 21.7293 226.943 22.2854L227.508 24.0277L225.747 24.6104L224.938 22.4949C224.833 22.222 224.547 22.0626 224.265 22.1201C223.674 22.2382 223.215 22.2942 222.775 22.3016C222.33 22.3193 221.872 22.2721 221.277 22.1777C220.99 22.132 220.713 22.3016 220.619 22.579L219.772 24.7846L218.054 24.0912L218.61 22.4478C218.8 21.8857 218.578 21.2646 218.069 20.9371C217.515 20.583 217.002 20.1641 216.545 19.692C216.291 19.4294 215.955 19.2936 215.617 19.2936C215.394 19.2936 215.169 19.3542 214.967 19.4766L213.366 20.3411L212.492 18.6932L213.949 17.8037C214.462 17.4924 214.687 16.8669 214.496 16.2842C214.223 15.4448 214.083 14.6444 214.069 13.83C214.069 13.532 213.855 13.279 213.564 13.2333L211.285 12.7767L211.664 10.9444L213.354 11.2121C213.942 11.3007 214.504 10.9753 214.733 10.4118C214.98 9.80618 215.3 9.2242 215.686 8.68057C216.038 8.18337 216.013 7.52176 215.623 7.07107L214.503 5.629L215.958 4.47237L217.084 5.77654C217.475 6.22948 218.122 6.34304 218.656 6.05613C219.244 5.73967 219.858 5.49554 220.483 5.33028C221.066 5.17613 221.466 4.65312 221.454 4.05932L221.514 2.24403L223.364 2.30306L223.397 4.02246C223.409 4.61555 223.828 5.12224 224.416 5.2543C225.044 5.39296 225.667 5.61275 226.268 5.90712C226.816 6.17341 227.455 6.03326 227.83 5.56562L229.037 4.20545L230.417 5.45206L229.338 6.80344C228.967 7.26961 228.967 7.93129 229.338 8.41442C229.743 8.93962 230.086 9.50907 230.356 10.1051C230.605 10.6606 231.179 10.9644 231.764 10.8531L233.553 10.5949L233.817 12.4471L231.631 12.8797Z" stroke="#AFAFAF" stroke-width="0.2" mask="url(#path-4-outside-1_472_227)"/>
<path d="M222.969 12.4619C224.379 12.4619 225.527 11.3147 225.527 9.90418C225.527 8.49368 224.379 7.34648 222.969 7.34648C221.558 7.34648 220.411 8.49369 220.411 9.90418C220.411 11.3147 221.558 12.4619 222.969 12.4619ZM222.969 8.45277C223.769 8.45277 224.419 9.10366 224.419 9.90418C224.419 10.7047 223.769 11.3556 222.969 11.3556C222.168 11.3556 221.517 10.7047 221.517 9.90418C221.517 9.10369 222.168 8.45277 222.969 8.45277ZM222.969 12.7256C220.42 12.7256 218.347 14.798 218.347 17.3462C218.347 17.6514 218.595 17.8999 218.901 17.8999H227.036C227.341 17.8999 227.59 17.6515 227.59 17.3462C227.59 14.7979 225.517 12.7256 222.969 12.7256ZM226.44 16.7924H219.497C219.763 15.117 221.219 13.8318 222.969 13.8318C224.718 13.8318 226.173 15.1169 226.44 16.7924Z" fill="#AFAFAF" stroke="#AFAFAF" stroke-width="0.1"/>
<g clip-path="url(#clip0_472_227)">
<path d="M71.2539 15.7185C71.2539 15.7185 71.4058 17.5772 71.4411 18.1632C71.4881 18.9493 71.7918 19.8273 72.2988 20.4369C73.0153 21.301 73.8569 21.6058 74.9831 21.6079C76.3049 21.6101 85.9245 21.6101 87.2474 21.6079C88.3725 21.6058 89.2152 21.301 89.9318 20.4369C90.4376 19.8273 90.7413 18.9493 90.7894 18.1632C90.8237 17.5772 90.9755 15.7185 90.9755 15.7185M77.3412 4.86576V4.47007C77.3412 3.16535 78.3978 2.10767 79.7025 2.10767H82.4638C83.7675 2.10767 84.8252 3.16428 84.8252 4.469L84.8262 4.86576M81.0832 17.004V15.619" stroke="#AFAFAF" stroke-width="1.5" stroke-linecap="round" stroke-linejoin="round"/>
<path d="M71.1963 8.13927V11.846C73.2475 13.1988 75.7051 14.1463 78.4022 14.5217C78.5614 13.9345 78.9099 13.4162 79.3937 13.0472C79.8775 12.6783 80.4695 12.4793 81.078 12.4812C82.3485 12.4812 83.4307 13.3443 83.7334 14.5324C86.4412 14.1581 88.9084 13.2095 90.9703 11.846V8.13927C90.9714 7.70957 90.8877 7.28389 90.7238 6.88667C90.5599 6.48945 90.3191 6.12853 90.0153 5.82463C89.7116 5.52074 89.3507 5.27987 88.9535 5.11586C88.5564 4.95184 88.1307 4.86792 87.701 4.86891H74.4763C74.0461 4.86792 73.6199 4.95177 73.2221 5.11565C72.8244 5.27954 72.4628 5.52024 72.1582 5.82399C71.8535 6.12774 71.6118 6.48858 71.4467 6.88586C71.2817 7.28314 71.1966 7.70907 71.1963 8.13927Z" stroke="#AFAFAF" stroke-width="1.5" stroke-linecap="round" stroke-linejoin="round"/>
</g>
<defs>
<clipPath id="clip0_472_227">
<rect width="22" height="22" fill="white" transform="translate(70.0889 1)"/>
</clipPath>
</defs>
</svg>
