<svg width="21" height="23" viewBox="0 0 21 23" fill="none" xmlns="http://www.w3.org/2000/svg">
<path d="M13.8012 22.2798H3.25029C1.59336 22.2798 0.25 20.9559 0.25 19.323V3.95676C0.25 2.32387 1.59336 1 3.25029 1H13.8009C15.4579 1 16.8009 2.32358 16.8009 3.95647V4.95439C16.8009 5.39224 16.4408 5.74717 15.9965 5.74717C15.5522 5.74717 15.192 5.39224 15.192 4.95439V3.95676C15.192 3.19956 14.5693 2.58555 13.8006 2.58555H3.25029C2.48195 2.58555 1.85918 3.19928 1.85918 3.95647V19.3233C1.85918 20.0805 2.48195 20.6939 3.25 20.6939H13.8009C14.5693 20.6939 15.1917 20.0802 15.1917 19.3233V18.4981C15.1917 18.0602 15.5519 17.7053 15.9962 17.7053C16.4405 17.7053 16.8006 18.0602 16.8006 18.4981V19.3233C16.8012 20.9562 15.4579 22.2798 13.8012 22.2798Z" fill="#528FEA" stroke="#528FEA" stroke-width="0.3"/>
<path d="M20.1206 11.6363L16.6879 8.31274C16.3857 8.02007 15.8954 8.02007 15.5931 8.31274C15.2908 8.60542 15.2908 9.0801 15.5931 9.37277L17.6993 11.412L17.7321 11.4424H9.29954C8.87203 11.4424 8.52548 11.7779 8.52548 12.1918C8.52548 12.6057 8.87203 12.9413 9.29954 12.9413H17.6785L15.332 15.2132C15.0278 15.5078 15.0605 15.9529 15.4046 16.2027C15.7486 16.4526 16.2789 16.4162 16.5832 16.1216L20.1209 12.6963C20.4232 12.4037 20.4232 11.9293 20.1206 11.6363Z" fill="#528FEA" stroke="#528FEA" stroke-width="0.3"/>
</svg>
