<svg width="23" height="22" viewBox="0 0 23 22" fill="none" xmlns="http://www.w3.org/2000/svg">
<g clip-path="url(#clip0_472_262)">
<path d="M1.25391 14.7185C1.25391 14.7185 1.40577 16.5772 1.44106 17.1632C1.48811 17.9493 1.79184 18.8273 2.29875 19.4369C3.01528 20.301 3.85693 20.6058 4.98306 20.6079C6.30489 20.6101 15.9245 20.6101 17.2474 20.6079C18.3725 20.6058 19.2152 20.301 19.9318 19.4369C20.4376 18.8273 20.7413 17.9493 20.7894 17.1632C20.8237 16.5772 20.9755 14.7185 20.9755 14.7185M7.34118 3.86576V3.47007C7.34118 2.16535 8.3978 1.10767 9.70252 1.10767H12.4638C13.7675 1.10767 14.8252 2.16428 14.8252 3.469L14.8262 3.86576M11.0832 16.004V14.619" stroke="black" stroke-width="1.5" stroke-linecap="round" stroke-linejoin="round"/>
<path d="M1.19629 7.13927V10.846C3.24748 12.1988 5.70507 13.1463 8.40221 13.5217C8.56137 12.9345 8.90989 12.4162 9.39369 12.0472C9.8775 11.6783 10.4695 11.4793 11.078 11.4812C12.3485 11.4812 13.4307 12.3443 13.7334 13.5324C16.4412 13.1581 18.9084 12.2095 20.9703 10.846V7.13927C20.9714 6.70957 20.8877 6.28389 20.7238 5.88667C20.5599 5.48945 20.3191 5.12853 20.0153 4.82463C19.7116 4.52074 19.3507 4.27987 18.9535 4.11586C18.5564 3.95184 18.1307 3.86792 17.701 3.86891H4.47627C4.04607 3.86792 3.6199 3.95177 3.22214 4.11565C2.82438 4.27954 2.46283 4.52024 2.15818 4.82399C1.85354 5.12774 1.61177 5.48858 1.44672 5.88586C1.28167 6.28314 1.19657 6.70907 1.19629 7.13927Z" stroke="black" stroke-width="1.5" stroke-linecap="round" stroke-linejoin="round"/>
</g>
<defs>
<clipPath id="clip0_472_262">
<rect width="22" height="22" fill="white" transform="translate(0.0888672)"/>
</clipPath>
</defs>
</svg>
