<svg width="49" height="50" viewBox="0 0 49 50" fill="none" xmlns="http://www.w3.org/2000/svg">
<path d="M13.1922 12.0577C12.6924 12.0577 12.213 11.8591 11.8596 11.5057C11.5062 11.1523 11.3076 10.6729 11.3076 10.1731V2.63462C11.3076 2.13478 11.5062 1.65542 11.8596 1.30199C12.213 0.948557 12.6924 0.75 13.1922 0.75C13.6921 0.75 14.1714 0.948557 14.5249 1.30199C14.8783 1.65542 15.0768 2.13478 15.0768 2.63462V10.1731C15.0768 10.6729 14.8783 11.1523 14.5249 11.5057C14.1714 11.8591 13.6921 12.0577 13.1922 12.0577ZM35.8076 12.0577C35.3078 12.0577 34.8284 11.8591 34.475 11.5057C34.1216 11.1523 33.923 10.6729 33.923 10.1731V2.63462C33.923 2.13478 34.1216 1.65542 34.475 1.30199C34.8284 0.948557 35.3078 0.75 35.8076 0.75C36.3074 0.75 36.7868 0.948557 37.1402 1.30199C37.4937 1.65542 37.6922 2.13478 37.6922 2.63462V10.1731C37.6922 10.6729 37.4937 11.1523 37.1402 11.5057C36.7868 11.8591 36.3074 12.0577 35.8076 12.0577Z" fill="black"/>
<path d="M43.3462 49.7501H5.65385C2.53669 49.7501 0 47.2134 0 44.0962V10.1731C0 7.05598 2.53669 4.51929 5.65385 4.51929H43.3462C46.4633 4.51929 49 7.05598 49 10.1731V44.0962C49 47.2134 46.4633 49.7501 43.3462 49.7501ZM5.65385 8.28852C5.15402 8.28852 4.67466 8.48708 4.32122 8.84051C3.96779 9.19394 3.76923 9.6733 3.76923 10.1731V44.0962C3.76923 44.596 3.96779 45.0754 4.32122 45.4288C4.67466 45.7823 5.15402 45.9808 5.65385 45.9808H43.3462C43.846 45.9808 44.3253 45.7823 44.6788 45.4288C45.0322 45.0754 45.2308 44.596 45.2308 44.0962V10.1731C45.2308 9.6733 45.0322 9.19394 44.6788 8.84051C44.3253 8.48708 43.846 8.28852 43.3462 8.28852H5.65385Z" fill="black"/>
<path d="M47.1154 19.5961H1.88462C1.38478 19.5961 0.905425 19.3976 0.551991 19.0441C0.198557 18.6907 0 18.2114 0 17.7115C0 17.2117 0.198557 16.7323 0.551991 16.3789C0.905425 16.0255 1.38478 15.8269 1.88462 15.8269H47.1154C47.6152 15.8269 48.0946 16.0255 48.448 16.3789C48.8014 16.7323 49 17.2117 49 17.7115C49 18.2114 48.8014 18.6907 48.448 19.0441C48.0946 19.3976 47.6152 19.5961 47.1154 19.5961ZM15.0769 23.3654H18.8462V27.1346H15.0769V23.3654ZM22.6154 23.3654H26.3846V27.1346H22.6154V23.3654ZM30.1538 23.3654H33.9231V27.1346H30.1538V23.3654ZM37.6923 23.3654H41.4615V27.1346H37.6923V23.3654ZM7.53846 30.9038H11.3077V34.6731H7.53846V30.9038ZM15.0769 30.9038H18.8462V34.6731H15.0769V30.9038ZM22.6154 30.9038H26.3846V34.6731H22.6154V30.9038ZM30.1538 30.9038H33.9231V34.6731H30.1538V30.9038ZM37.6923 30.9038H41.4615V34.6731H37.6923V30.9038ZM7.53846 38.4423H11.3077V42.2115H7.53846V38.4423ZM15.0769 38.4423H18.8462V42.2115H15.0769V38.4423ZM22.6154 38.4423H26.3846V42.2115H22.6154V38.4423Z" fill="black"/>
</svg>
