<svg width="28" height="24" viewBox="0 0 28 24" fill="none" xmlns="http://www.w3.org/2000/svg">
<path d="M6.86168 5.03198H5.94678V5.94688H6.86168V5.03198Z" fill="#AFAFAF"/>
<path d="M9.60631 5.03198H8.69141V5.94688H9.60631V5.03198Z" fill="#AFAFAF"/>
<path d="M27.7215 12.5753C27.754 12.3788 27.7434 12.1775 27.6903 11.9855C27.6372 11.7935 27.543 11.6154 27.4141 11.4635C27.2853 11.3115 27.1249 11.1895 26.9442 11.1058C26.7634 11.0221 26.5666 10.9788 26.3674 10.9788H19.0025C18.5696 10.9781 18.1506 11.1314 17.8203 11.4113C17.4901 11.6912 17.2703 12.0795 17.2001 12.5067L16.3859 17.3831H14.5012L13.1791 13.7464C13.0302 13.3435 12.8026 12.9743 12.5097 12.6601C12.2168 12.346 11.8643 12.0932 11.4728 11.9166L8.69155 10.6815V10.2789C9.49346 9.99601 10.188 9.47154 10.6795 8.77768C11.171 8.08378 11.4354 7.25465 11.4362 6.4043V0.45745C11.4362 0.336134 11.388 0.219759 11.3023 0.133987C11.2165 0.0482152 11.1001 0 10.9788 0H5.4894C4.88277 0 4.30099 0.240985 3.87208 0.669935C3.44312 1.09884 3.20215 1.68062 3.20215 2.28725V4.13992C2.81323 4.19458 2.45822 4.39106 2.20531 4.69151C1.9524 4.99201 1.81941 5.37531 1.83189 5.76785C1.84437 6.16043 2.00143 6.53449 2.27292 6.81829C2.54441 7.10209 2.91118 7.2756 3.30279 7.30547C3.53908 8.33437 4.15707 9.23522 5.03195 9.82602V10.6586L2.71268 11.5049C1.91805 11.7922 1.23128 12.3175 0.745881 13.0092C0.260481 13.7008 3.6596e-05 14.5253 0 15.3703V17.8405C0.00138607 18.3374 0.167042 18.8199 0.471173 19.2129H0.45745C0.336125 19.2129 0.219773 19.2611 0.133982 19.3469C0.0481969 19.4326 0 19.549 0 19.6703V21.5001C0 21.6215 0.0481969 21.7378 0.133982 21.8236C0.219773 21.9094 0.336125 21.9576 0.45745 21.9576H1.37235V23.3299C1.37235 23.4513 1.42055 23.5676 1.50633 23.6534C1.59212 23.7392 1.70847 23.7874 1.8298 23.7874H25.6172C25.7385 23.7874 25.8549 23.7392 25.9406 23.6534C26.0264 23.5676 26.0746 23.4513 26.0746 23.3299V21.9576H26.9895C27.1109 21.9576 27.2272 21.9094 27.313 21.8236C27.3988 21.7378 27.447 21.6215 27.447 21.5001V19.6703C27.447 19.549 27.3988 19.4326 27.313 19.3469C27.2272 19.2611 27.1109 19.2129 26.9895 19.2129H26.5916C26.621 19.1379 26.641 19.0595 26.651 18.9796L27.7215 12.5753ZM3.20215 6.36313C3.06845 6.31628 2.9526 6.22905 2.87064 6.1135C2.78868 5.99794 2.74465 5.85979 2.74465 5.71812C2.74465 5.57645 2.78868 5.4383 2.87064 5.32275C2.9526 5.2072 3.06845 5.11996 3.20215 5.07312V6.36313ZM18.1013 12.6576C18.136 12.4439 18.2458 12.2495 18.411 12.1095C18.5762 11.9695 18.7859 11.893 19.0025 11.8937H19.1305L17.9092 19.2129H17.008L18.1013 12.6576ZM16.2349 18.298L16.0794 19.2129H12.8086C12.6873 19.2129 12.5709 19.1647 12.4851 19.0789C12.3994 18.9931 12.3511 18.8768 12.3511 18.7554V18.298H16.2349ZM4.11705 2.28725C4.11815 1.92362 4.26307 1.57518 4.5202 1.31805C4.77733 1.06092 5.12577 0.915997 5.4894 0.914899H10.5213V2.38331C10.2514 2.42448 10.0044 2.4748 9.76655 2.52055C9.11313 2.66588 8.44603 2.74099 7.77665 2.7447C7.36265 2.76766 6.94875 2.69891 6.5644 2.54342C6.07699 2.35221 5.55504 2.26493 5.03195 2.28725C4.91063 2.28725 4.79426 2.33546 4.70848 2.42124C4.62271 2.50701 4.5745 2.62338 4.5745 2.7447V3.6596C4.5745 3.78091 4.52628 3.89729 4.44051 3.98306C4.35474 4.06883 4.23836 4.11705 4.11705 4.11705V2.28725ZM4.11705 6.4043V5.03195C4.48067 5.03085 4.82911 4.88593 5.08625 4.6288C5.34338 4.37166 5.4883 4.02322 5.4894 3.6596V3.22045C5.74927 3.23984 6.00426 3.30169 6.24419 3.40343C6.7316 3.59464 7.25355 3.68192 7.77665 3.6596C8.50445 3.65608 9.22983 3.57479 9.94038 3.41715C10.1279 3.38055 10.3201 3.34396 10.5213 3.30736V6.4043C10.5213 7.25355 10.184 8.06804 9.58343 8.66853C8.98294 9.26907 8.16845 9.60644 7.3192 9.60644C6.46994 9.60644 5.65545 9.26907 5.05496 8.66853C4.45442 8.06804 4.11705 7.25355 4.11705 6.4043ZM7.77665 10.4939V10.9788C7.77665 11.2214 7.68026 11.4541 7.50867 11.6257C7.33708 11.7973 7.10438 11.8937 6.86175 11.8937C6.61912 11.8937 6.38641 11.7973 6.21482 11.6257C6.04323 11.4541 5.94685 11.2214 5.94685 10.9788V10.2789C6.38673 10.4388 6.85113 10.5209 7.3192 10.5213C7.47208 10.5214 7.62486 10.5123 7.77665 10.4939ZM0.9149 15.3703C0.914986 14.7134 1.11748 14.0724 1.49481 13.5347C1.87215 12.9969 2.40601 12.5884 3.02374 12.3649L5.14631 11.5918C5.27028 11.9443 5.49974 12.2501 5.80353 12.4677C6.10732 12.6854 6.47067 12.8042 6.84436 12.8083C7.21801 12.8123 7.58388 12.7012 7.89224 12.4901C8.20061 12.279 8.43652 11.9781 8.56803 11.6284L11.0977 12.7537C11.3787 12.8786 11.6317 13.0588 11.8415 13.2836C12.0514 13.5084 12.2138 13.7731 12.3191 14.062L13.5268 17.3831H11.9303L10.9468 14.9266C10.9109 14.841 10.8505 14.7679 10.7731 14.7167C10.6958 14.6654 10.605 14.6381 10.5122 14.6384C10.3909 14.6384 10.2745 14.6866 10.1887 14.7724C10.103 14.8581 10.0547 14.9745 10.0547 15.0958V19.2129H8.2341C8.23286 18.8107 8.12513 18.4159 7.92184 18.0688C7.7186 17.7216 7.42697 17.4346 7.07675 17.2367L6.85717 15.4984L5.95142 15.6082L6.1161 16.9439C6.06121 16.9394 6.00632 16.9256 5.94685 16.9256H3.20215V14.6384H2.28725V17.3831C2.28725 17.5044 2.33545 17.6208 2.42123 17.7066C2.50702 17.7923 2.62337 17.8405 2.7447 17.8405H5.03195V19.2129H2.28725C1.92361 19.2118 1.57518 19.0669 1.31805 18.8097C1.06092 18.5526 0.915984 18.2042 0.9149 17.8405V15.3703ZM11.5186 19.2129H10.9696V17.4471L11.4362 18.6136V18.7554C11.4375 18.9115 11.4653 19.0662 11.5186 19.2129ZM7.3192 19.2129H5.94685V17.8405C6.31047 17.8416 6.65891 17.9866 6.91605 18.2437C7.17318 18.5008 7.3181 18.8493 7.3192 19.2129ZM25.1597 22.8725H2.28725V21.9576H25.1597V22.8725ZM26.5321 21.0427H0.9149V20.1278H26.5321V21.0427ZM25.7498 18.8286C25.7335 18.9358 25.6793 19.0335 25.597 19.104C25.5148 19.1745 25.4099 19.2131 25.3015 19.2129H18.8378L20.0592 11.8937H26.3674C26.4338 11.8935 26.4994 11.9077 26.5597 11.9355C26.62 11.9632 26.6736 12.0037 26.7167 12.0542C26.7598 12.1047 26.7914 12.1639 26.8093 12.2279C26.8271 12.2918 26.8309 12.3588 26.8203 12.4243L25.7498 18.8286Z" fill="#AFAFAF"/>
<path d="M22.8724 14.1809C22.6009 14.1809 22.3356 14.2614 22.1099 14.4122C21.8842 14.563 21.7083 14.7773 21.6045 15.0281C21.5006 15.2788 21.4734 15.5548 21.5264 15.821C21.5793 16.0872 21.71 16.3317 21.902 16.5236C22.0939 16.7156 22.3384 16.8463 22.6046 16.8993C22.8708 16.9522 23.1468 16.925 23.3975 16.8211C23.6483 16.7173 23.8626 16.5414 24.0134 16.3157C24.1642 16.09 24.2447 15.8247 24.2447 15.5533C24.2447 15.1893 24.1001 14.8402 23.8427 14.5829C23.5854 14.3255 23.2363 14.1809 22.8724 14.1809ZM22.8724 16.0107C22.7819 16.0107 22.6934 15.9839 22.6182 15.9336C22.543 15.8834 22.4843 15.8119 22.4497 15.7283C22.4151 15.6447 22.406 15.5528 22.4237 15.464C22.4413 15.3753 22.4849 15.2937 22.5489 15.2298C22.6128 15.1658 22.6944 15.1222 22.7831 15.1046C22.8719 15.0869 22.9638 15.096 23.0474 15.1306C23.131 15.1652 23.2024 15.2239 23.2527 15.2991C23.303 15.3743 23.3298 15.4628 23.3298 15.5533C23.3298 15.6746 23.2816 15.7909 23.1958 15.8767C23.11 15.9625 22.9937 16.0107 22.8724 16.0107Z" fill="#AFAFAF"/>
</svg>
