<svg width="27" height="27" viewBox="0 0 27 27" fill="none" xmlns="http://www.w3.org/2000/svg">
<g clip-path="url(#clip0_212_211)">
<path d="M25.3125 0.84375H10.5469C10.3231 0.84375 10.1085 0.932645 9.95025 1.09088C9.79202 1.24911 9.70312 1.46372 9.70312 1.6875C9.70312 1.91128 9.79202 2.12589 9.95025 2.28412C10.1085 2.44236 10.3231 2.53125 10.5469 2.53125H24.4688V16.4531C24.4688 16.6769 24.5576 16.8915 24.7159 17.0497C24.8741 17.208 25.0887 17.2969 25.3125 17.2969C25.5363 17.2969 25.7509 17.208 25.9091 17.0497C26.0674 16.8915 26.1562 16.6769 26.1562 16.4531V1.6875C26.1562 1.46372 26.0674 1.24911 25.9091 1.09088C25.7509 0.932645 25.5363 0.84375 25.3125 0.84375Z" fill="white"/>
<path d="M21.9375 4.21875H1.6875C1.46372 4.21875 1.24911 4.30764 1.09088 4.46588C0.932645 4.62411 0.84375 4.83872 0.84375 5.0625V25.3125C0.84375 25.5363 0.932645 25.7509 1.09088 25.9091C1.24911 26.0674 1.46372 26.1562 1.6875 26.1562H21.9375C22.1613 26.1562 22.3759 26.0674 22.5341 25.9091C22.6924 25.7509 22.7812 25.5363 22.7812 25.3125V5.0625C22.7812 4.83872 22.6924 4.62411 22.5341 4.46588C22.3759 4.30764 22.1613 4.21875 21.9375 4.21875ZM21.0938 24.4688H2.53125V5.90625H21.0938V24.4688Z" fill="white"/>
<path d="M6.53491 16.0313H10.9688V20.4652C10.9688 20.6889 11.0577 20.9036 11.2159 21.0618C11.3742 21.22 11.5888 21.3089 11.8126 21.3089C12.0363 21.3089 12.251 21.22 12.4092 21.0618C12.5674 20.9036 12.6563 20.6889 12.6563 20.4652V16.0313H17.0902C17.314 16.0313 17.5286 15.9424 17.6868 15.7841C17.8451 15.6259 17.934 15.4113 17.934 15.1875C17.934 14.9637 17.8451 14.7491 17.6868 14.5909C17.5286 14.4327 17.314 14.3438 17.0902 14.3438H12.6563V9.90985C12.6563 9.68607 12.5674 9.47146 12.4092 9.31323C12.251 9.155 12.0363 9.0661 11.8126 9.0661C11.5888 9.0661 11.3742 9.155 11.2159 9.31323C11.0577 9.47146 10.9688 9.68607 10.9688 9.90985V14.3438H6.53491C6.31114 14.3438 6.09652 14.4327 5.93829 14.5909C5.78006 14.7491 5.69116 14.9637 5.69116 15.1875C5.69116 15.4113 5.78006 15.6259 5.93829 15.7841C6.09652 15.9424 6.31114 16.0313 6.53491 16.0313Z" fill="white"/>
</g>
<defs>
<clipPath id="clip0_212_211">
<rect width="27" height="27" fill="white"/>
</clipPath>
</defs>
</svg>
