<svg width="32" height="32" viewBox="0 0 32 32" fill="none" xmlns="http://www.w3.org/2000/svg">
<rect width="32" height="32" rx="16" fill="#F7F7F7"/>
<path d="M13.1133 21.2404H18.882V10.7578H13.1133V21.2404Z" fill="#FF5F00"/>
<path d="M13.4806 16.0026C13.4806 13.8759 14.4653 11.9819 15.9987 10.7613C14.8772 9.86853 13.4623 9.33594 11.9243 9.33594C8.28343 9.33594 5.33203 12.3207 5.33203 16.0026C5.33203 19.6844 8.28343 22.6692 11.9243 22.6692C13.4623 22.6692 14.8772 22.1366 15.9987 21.2438C14.4653 20.0231 13.4806 18.1292 13.4806 16.0026" fill="#EB001B"/>
<path fill-rule="evenodd" clip-rule="evenodd" d="M20.0744 22.6692C23.7151 22.6692 26.6667 19.6844 26.6667 16.0026C26.6667 12.3207 23.7151 9.33594 20.0744 9.33594C18.5364 9.33594 17.1213 9.86853 16 10.7613C17.5334 11.982 18.5181 13.8761 18.5181 16.0026C18.5181 18.1292 17.5334 20.0233 16 21.2439C17.1213 22.1366 18.5364 22.6692 20.0744 22.6692ZM26.4608 20.1337V19.875H26.394L26.3172 20.0529L26.2403 19.875H26.1735V20.1337H26.2206V19.9385L26.2927 20.1068H26.3416L26.4138 19.9381V20.1337H26.4608ZM26.0376 20.1337V19.919H26.1233V19.8753H25.9054V19.919H25.9909V20.1337H26.0376Z" fill="#F79E1B"/>
</svg>
