<svg width="30" height="29" viewBox="0 0 30 29" fill="none" xmlns="http://www.w3.org/2000/svg">
<rect x="0.795166" y="0.373535" width="28.6265" height="28.6265" rx="14.3133" fill="#193D9B"/>
<g clip-path="url(#clip0_711_185)">
<path d="M21.6686 18.8615C21.6686 19.1778 21.5429 19.4812 21.3192 19.7049C21.0955 19.9286 20.7921 20.0543 20.4758 20.0543H9.74087C9.42452 20.0543 9.12114 19.9286 8.89745 19.7049C8.67376 19.4812 8.5481 19.1778 8.5481 18.8615V12.3013C8.5481 11.9849 8.67376 11.6815 8.89745 11.4578C9.12114 11.2342 9.42452 11.1085 9.74087 11.1085H12.1264L13.3192 9.31934H16.8975L18.0903 11.1085H20.4758C20.7921 11.1085 21.0955 11.2342 21.3192 11.4578C21.5429 11.6815 21.6686 11.9849 21.6686 12.3013V18.8615Z" stroke="white" stroke-width="1.19277" stroke-linecap="round" stroke-linejoin="round"/>
<path d="M15.1084 17.6687C16.4259 17.6687 17.494 16.6006 17.494 15.2831C17.494 13.9656 16.4259 12.8976 15.1084 12.8976C13.7909 12.8976 12.7229 13.9656 12.7229 15.2831C12.7229 16.6006 13.7909 17.6687 15.1084 17.6687Z" stroke="white" stroke-width="1.19277" stroke-linecap="round" stroke-linejoin="round"/>
</g>
<defs>
<clipPath id="clip0_711_185">
<rect width="14.3133" height="14.3133" fill="white" transform="translate(7.95166 7.53015)"/>
</clipPath>
</defs>
</svg>
