<svg width="32" height="32" viewBox="0 0 32 32" fill="none" xmlns="http://www.w3.org/2000/svg">
<rect width="32" height="32" rx="16" fill="#F7F7F7"/>
<path fill-rule="evenodd" clip-rule="evenodd" d="M27.5937 14.2266C27.7931 14.2266 27.9052 14.3001 27.9052 14.4319H27.9084C27.9084 14.5231 27.8429 14.5916 27.7277 14.6169L27.9987 14.8932H27.7588L27.5283 14.6347V14.8932H27.332V14.2266H27.5937ZM27.5252 14.5231H27.5563C27.656 14.5231 27.7059 14.4927 27.7059 14.4344C27.7059 14.3761 27.656 14.3482 27.5594 14.3482H27.5252V14.5231Z" fill="black"/>
<path fill-rule="evenodd" clip-rule="evenodd" d="M27.1406 14.4185C27.1406 14.2341 27.2883 14.0859 27.4754 14.0859C27.6582 14.0859 27.8073 14.2341 27.8073 14.4185C27.8073 14.603 27.6596 14.7526 27.4754 14.7526C27.2912 14.7526 27.1406 14.603 27.1406 14.4185ZM27.2079 14.42C27.2079 14.571 27.3278 14.6931 27.4754 14.6931C27.6231 14.6931 27.7415 14.5681 27.7415 14.42C27.7415 14.2718 27.6245 14.1469 27.4754 14.1469C27.3263 14.1469 27.2079 14.2689 27.2079 14.42Z" fill="black"/>
<path fill-rule="evenodd" clip-rule="evenodd" d="M25.6344 14.1172C26.474 14.1172 26.9557 14.5247 26.9557 15.232C26.9557 15.8103 26.6541 16.1899 26.1049 16.3026L27.281 17.8932H26.3851L25.3767 16.376H25.2816V17.8932H24.5547V14.1172H25.6344ZM25.2816 15.8559H25.4943C25.9597 15.8559 26.2062 15.6382 26.2062 15.2713C26.2062 14.9043 25.9597 14.7119 25.5056 14.7119H25.2816V15.8559Z" fill="black"/>
<path d="M22.0078 17.8932H24.0735V17.2542H22.7347V16.2342H24.0234V15.5952H22.7347V14.7575H24.0735V14.1172H22.0078V17.8932Z" fill="black"/>
<path d="M19.8803 16.6531L18.8843 14.1172H18.0898L19.6738 17.9906H20.0654L21.6794 14.1172H20.8887L19.8803 16.6531Z" fill="black"/>
<path d="M18.2974 16.0006C18.2974 17.1053 17.4128 18 16.3206 18C15.2283 18 14.3438 17.1041 14.3438 16.0006C14.3438 14.8972 15.2283 14 16.3206 14C17.4128 14 18.2974 14.8959 18.2974 15.9994V16.0006Z" fill="url(#paint0_linear_2275_4509)"/>
<g style="mix-blend-mode:multiply" opacity="0.65">
<path d="M18.2974 16.0006C18.2974 17.1053 17.4128 18 16.3206 18C15.2283 18 14.3438 17.1041 14.3438 16.0006C14.3438 14.8972 15.2283 14 16.3206 14C17.4128 14 18.2974 14.8959 18.2974 15.9994V16.0006Z" fill="url(#paint1_linear_2275_4509)"/>
</g>
<path d="M11.2227 16.0066C11.2227 17.1164 12.0847 17.9768 13.1932 17.9768C13.5073 17.9768 13.775 17.9148 14.1066 17.7567V16.8898C13.8151 17.1847 13.5573 17.3036 13.227 17.3036C12.4938 17.3036 11.9734 16.7658 11.9734 16.0015C11.9734 15.2764 12.5101 14.7045 13.1932 14.7045C13.5411 14.7045 13.8038 14.8297 14.1066 15.1296V14.2628C13.7875 14.0983 13.5235 14.0312 13.2107 14.0312C12.1072 14.0312 11.2227 14.9095 11.2227 16.0078V16.0066Z" fill="black"/>
<path d="M9.91655 15.5669C9.4799 15.4036 9.35103 15.2948 9.35103 15.0911C9.35103 14.8532 9.57999 14.6722 9.89403 14.6722C10.113 14.6722 10.2919 14.7633 10.4808 14.9784L10.8624 14.4735C10.5496 14.1964 10.1743 14.0547 9.76516 14.0547C9.10455 14.0547 8.60033 14.5191 8.60033 15.1366C8.60033 15.6567 8.83555 15.9237 9.51868 16.1717C9.80395 16.273 9.94908 16.3413 10.0216 16.3869C10.1668 16.483 10.2406 16.6184 10.2406 16.7779C10.2406 17.0841 10.0004 17.3106 9.67508 17.3106C9.32851 17.3106 9.04825 17.1347 8.88059 16.807L8.41016 17.2651C8.74547 17.7636 9.14834 17.9838 9.7026 17.9838C10.4596 17.9838 10.99 17.4751 10.99 16.7437C10.99 16.1439 10.7448 15.8718 9.91655 15.5656V15.5669Z" fill="black"/>
<rect x="7.40625" y="14.1172" width="0.728174" height="3.77602" fill="black"/>
<path fill-rule="evenodd" clip-rule="evenodd" d="M4 14.1172H5.06849C6.24958 14.1172 7.07285 14.8929 7.0741 16.0065C7.0741 16.5632 6.82136 17.0998 6.39597 17.4566C6.03689 17.7591 5.62901 17.8932 5.06349 17.8932H4V14.1172ZM4.9221 17.2542C5.39254 17.2542 5.69032 17.1631 5.91928 16.9543C6.17076 16.7278 6.32215 16.3646 6.32215 16.0027C6.32215 15.6408 6.17076 15.289 5.91928 15.0625C5.6778 14.8423 5.39254 14.7575 4.9221 14.7575H4.72692V17.2542H4.9221Z" fill="black"/>
<defs>
<linearGradient id="paint0_linear_2275_4509" x1="18.404" y1="16.9103" x2="17.0125" y2="14.7573" gradientUnits="userSpaceOnUse">
<stop stop-color="#F9A020"/>
<stop offset="0.25" stop-color="#F89B20"/>
<stop offset="0.53" stop-color="#F68D20"/>
<stop offset="0.62" stop-color="#F68820"/>
<stop offset="0.73" stop-color="#F58120"/>
<stop offset="1" stop-color="#F47521"/>
</linearGradient>
<linearGradient id="paint1_linear_2275_4509" x1="19.0713" y1="16.5615" x2="17.0335" y2="12.6251" gradientUnits="userSpaceOnUse">
<stop stop-color="#F68820" stop-opacity="0.01"/>
<stop offset="0.11" stop-color="#EE7F22" stop-opacity="0.14"/>
<stop offset="0.31" stop-color="#E37226" stop-opacity="0.35"/>
<stop offset="0.5" stop-color="#DB6829" stop-opacity="0.52"/>
<stop offset="0.69" stop-color="#D5602C" stop-opacity="0.64"/>
<stop offset="0.85" stop-color="#D15C2D" stop-opacity="0.71"/>
<stop offset="0.98" stop-color="#D05B2E" stop-opacity="0.74"/>
</linearGradient>
</defs>
</svg>
