<svg width="24" height="24" viewBox="0 0 24 24" fill="none" xmlns="http://www.w3.org/2000/svg">
<path d="M14.028 12.416C14.418 12.78 14.6 13.274 14.6 13.924C14.6 14.574 14.418 15.068 14.028 15.432C13.69 15.77 13.222 15.978 12.65 16.082C12.546 16.108 12.468 16.186 12.468 16.316V16.758C12.468 16.992 12.286 17.2 12.026 17.2C11.792 17.2 11.584 17.018 11.584 16.758V16.316C11.584 16.212 11.506 16.108 11.402 16.082C10.83 15.978 10.362 15.77 9.972 15.406C9.712 15.146 9.53 14.808 9.426 14.418C9.322 14.002 9.634 13.612 10.05 13.612H10.076C10.388 13.612 10.648 13.82 10.7 14.106C10.752 14.366 10.856 14.548 11.038 14.704C11.298 14.938 11.61 15.042 12 15.042C12.416 15.042 12.728 14.938 12.936 14.756C13.144 14.574 13.274 14.314 13.274 13.976C13.274 13.664 13.17 13.404 12.962 13.196C12.754 12.988 12.416 12.806 11.948 12.65C11.168 12.39 10.596 12.078 10.206 11.714C9.816 11.35 9.634 10.83 9.634 10.206C9.634 9.608 9.816 9.114 10.18 8.724C10.518 8.386 10.96 8.152 11.506 8.048C11.61 8.022 11.688 7.944 11.688 7.814V7.242C11.688 7.008 11.87 6.8 12.13 6.8H12.156C12.39 6.8 12.598 6.982 12.598 7.242V7.84C12.598 7.944 12.676 8.048 12.78 8.048C13.326 8.152 13.742 8.412 14.08 8.802C14.288 9.062 14.444 9.4 14.522 9.764C14.6 10.154 14.288 10.544 13.872 10.544H13.82C13.508 10.544 13.248 10.336 13.17 10.024C13.118 9.79 13.04 9.608 12.91 9.452C12.702 9.192 12.416 9.036 12.078 9.036C11.714 9.036 11.428 9.14 11.246 9.322C11.064 9.53 10.96 9.79 10.96 10.128C10.96 10.44 11.064 10.7 11.246 10.882C11.454 11.09 11.792 11.272 12.312 11.454C13.092 11.74 13.664 12.052 14.028 12.416ZM23.7 12C23.7 18.448 18.448 23.7 12 23.7C5.552 23.7 0.300003 18.448 0.300003 12C0.300003 5.552 5.552 0.300003 12 0.300003C18.448 0.300003 23.7 5.552 23.7 12ZM22.66 12C22.66 6.124 17.876 1.34 12 1.34C6.124 1.34 1.34 6.124 1.34 12C1.34 17.876 6.124 22.66 12 22.66C17.876 22.66 22.66 17.876 22.66 12Z" fill="#528FEA" stroke="#528FEA" stroke-width="0.6"/>
</svg>
