<svg width="26" height="27" viewBox="0 0 26 27" fill="none" xmlns="http://www.w3.org/2000/svg">
<g clip-path="url(#clip0_102_340)">
<path d="M22.6092 0H7.72417C6.82574 0.00296658 5.96493 0.374907 5.32964 1.03463C4.69436 1.69435 4.33619 2.58827 4.33333 3.52125V4.5H0V27H21.6667V22.5H22.6092C23.5076 22.497 24.3684 22.1251 25.0037 21.4654C25.639 20.8057 25.9971 19.9117 26 18.9788V3.52125C25.9971 2.58827 25.639 1.69435 25.0037 1.03463C24.3684 0.374907 23.5076 0.00296658 22.6092 0ZM19.5 24.75H2.16667V6.75H4.33333V18.9788C4.33619 19.9117 4.69436 20.8057 5.32964 21.4654C5.96493 22.1251 6.82574 22.497 7.72417 22.5H19.5V24.75ZM23.8333 18.9788C23.8305 19.315 23.7006 19.6366 23.4717 19.8744C23.2427 20.1122 22.933 20.2471 22.6092 20.25H7.72417C7.40037 20.2471 7.09064 20.1122 6.86168 19.8744C6.63271 19.6366 6.50283 19.315 6.5 18.9788V3.52125C6.50283 3.185 6.63271 2.86336 6.86168 2.62559C7.09064 2.38781 7.40037 2.25294 7.72417 2.25H22.6092C22.933 2.25294 23.2427 2.38781 23.4717 2.62559C23.7006 2.86336 23.8305 3.185 23.8333 3.52125V18.9788Z" fill="white"/>
<path d="M20.5833 5.625H9.75V7.875H20.5833V5.625Z" fill="white" stroke="white" stroke-width="0.6"/>
<path d="M20.5833 10.125H9.75V12.375H20.5833V10.125Z" fill="white" stroke="white" stroke-width="0.6"/>
<path d="M20.5833 14.625H9.75V16.875H20.5833V14.625Z" fill="white" stroke="white" stroke-width="0.6"/>
</g>
<defs>
<clipPath id="clip0_102_340">
<rect width="26" height="27" fill="white"/>
</clipPath>
</defs>
</svg>
