<svg width="19" height="22" viewBox="0 0 19 22" fill="none" xmlns="http://www.w3.org/2000/svg">
<path fill-rule="evenodd" clip-rule="evenodd" d="M4.14682 5.28651C4.14682 2.36685 6.40126 0 9.18224 0C11.9632 0 14.2177 2.36685 14.2177 5.28651C14.2177 8.20617 11.9632 10.573 9.18224 10.573C6.40126 10.573 4.14682 8.20617 4.14682 5.28651ZM9.18224 1.86583C7.38278 1.86583 5.92403 3.39732 5.92403 5.28651C5.92403 7.1757 7.38278 8.7072 9.18224 8.7072C10.9817 8.7072 12.4405 7.1757 12.4405 5.28651C12.4405 3.39732 10.9817 1.86583 9.18224 1.86583Z" fill="#AFAFAF" fill-opacity="0.85"/>
<path fill-rule="evenodd" clip-rule="evenodd" d="M4.44302 14.3047C2.97073 14.3047 1.77721 15.5577 1.77721 17.1034V18.5815C1.77721 18.604 1.79274 18.6232 1.8139 18.6268C6.69383 19.4633 11.6707 19.4633 16.5506 18.6268C16.5717 18.6232 16.5873 18.604 16.5873 18.5815V17.1034C16.5873 15.5577 15.3938 14.3047 13.9215 14.3047H13.5176C13.4864 14.3047 13.4553 14.3099 13.4257 14.32L12.4002 14.6716C10.3092 15.3884 8.05527 15.3884 5.96429 14.6716L4.93883 14.32C4.90914 14.3099 4.87811 14.3047 4.84688 14.3047H4.44302ZM0 17.1034C0 14.5273 1.98921 12.4389 4.44302 12.4389H4.84688C5.06547 12.4389 5.28268 12.4751 5.49048 12.5464L6.51594 12.8979C8.24846 13.4919 10.116 13.4919 11.8485 12.8979L12.874 12.5464C13.0818 12.4751 13.299 12.4389 13.5176 12.4389H13.9215C16.3753 12.4389 18.3645 14.5273 18.3645 17.1034V18.5815C18.3645 19.5184 17.7177 20.3173 16.837 20.4683C11.7674 21.3372 6.59712 21.3372 1.52754 20.4683C0.646766 20.3173 0 19.5184 0 18.5815V17.1034Z" fill="#AFAFAF" fill-opacity="0.85"/>
</svg>
