<svg width="23" height="22" viewBox="0 0 23 22" fill="none" xmlns="http://www.w3.org/2000/svg">
<path fill-rule="evenodd" clip-rule="evenodd" d="M13.0742 2.44856C11.9255 1.48669 10.1119 1.48669 8.96314 2.44856L2.85855 7.56018C2.70898 7.68542 2.60837 7.84856 2.57098 8.02648C1.83981 11.506 1.78583 15.0681 2.41134 18.5632L2.55981 19.3928H6.48725V12.2409C6.48725 11.7639 6.93032 11.3773 7.47687 11.3773H14.5605C15.1071 11.3773 15.5501 11.7639 15.5501 12.2409V19.3928H19.4776L19.626 18.5632C20.2516 15.0681 20.1976 11.506 19.4664 8.02648C19.429 7.84856 19.3284 7.68542 19.1788 7.56018L13.0742 2.44856ZM7.59278 1.20233C9.5073 -0.400777 12.5301 -0.400777 14.4446 1.20233L20.5492 6.31395C20.9986 6.69024 21.3009 7.18039 21.4132 7.71496C22.1845 11.3853 22.2414 15.1429 21.5816 18.8297L21.3431 20.1625C21.2444 20.7137 20.7004 21.12 20.0612 21.12H14.5605C14.014 21.12 13.5709 20.7334 13.5709 20.2564V13.1045H8.4665V20.2564C8.4665 20.7334 8.02343 21.12 7.47687 21.12H1.97623C1.33695 21.12 0.792942 20.7137 0.694303 20.1625L0.455786 18.8297C-0.204028 15.1429 -0.147095 11.3853 0.624193 7.71496C0.736526 7.18039 1.0388 6.69024 1.48818 6.31395L7.59278 1.20233Z" fill="black"/>
</svg>
