<svg width="25" height="24" viewBox="0 0 25 24" fill="none" xmlns="http://www.w3.org/2000/svg">
<path d="M12.0889 6C11.9575 5.99997 11.8275 6.02581 11.7061 6.07605C11.5848 6.12629 11.4746 6.19995 11.3817 6.29282C11.2888 6.38568 11.2152 6.49594 11.1649 6.61728C11.1147 6.73862 11.0888 6.86867 11.0889 7V10.2676L9.99121 9.63379C9.76149 9.50134 9.48857 9.46555 9.23246 9.53427C8.97635 9.60299 8.75801 9.7706 8.62544 10.0003C8.49288 10.2299 8.45694 10.5028 8.52553 10.759C8.59412 11.0151 8.76162 11.2335 8.99121 11.3662L11.5889 12.8662C11.7409 12.954 11.9134 13.0002 12.0889 13.0002C12.2645 13.0002 12.4369 12.954 12.589 12.8662C12.741 12.7784 12.8672 12.6521 12.955 12.5001C13.0427 12.348 13.0889 12.1756 13.0889 12V7C13.0889 6.86867 13.0631 6.73862 13.0128 6.61728C12.9626 6.49594 12.8889 6.38568 12.7961 6.29282C12.7032 6.19995 12.5929 6.12629 12.4716 6.07605C12.3503 6.02581 12.2202 5.99997 12.0889 6ZM12.0889 2C10.1111 2 8.17766 2.58649 6.53317 3.6853C4.88868 4.78412 3.60695 6.3459 2.85008 8.17317C2.0932 10.0004 1.89517 12.0111 2.28102 13.9509C2.66687 15.8907 3.61928 17.6725 5.0178 19.0711C6.41633 20.4696 8.19816 21.422 10.138 21.8079C12.0778 22.1937 14.0884 21.9957 15.9157 21.2388C17.743 20.4819 19.3048 19.2002 20.4036 17.5557C21.5024 15.9112 22.0889 13.9778 22.0889 12C22.0858 9.34877 21.0313 6.80699 19.1566 4.93228C17.2819 3.05758 14.7401 2.00303 12.0889 2ZM12.0889 20C10.5066 20 8.9599 19.5308 7.64431 18.6518C6.32872 17.7727 5.30334 16.5233 4.69784 15.0615C4.09233 13.5997 3.93391 11.9911 4.24259 10.4393C4.55127 8.88743 5.3132 7.46197 6.43202 6.34315C7.55084 5.22433 8.9763 4.4624 10.5281 4.15372C12.08 3.84504 13.6885 4.00346 15.1503 4.60896C16.6121 5.21447 17.8616 6.23984 18.7406 7.55544C19.6197 8.87103 20.0889 10.4177 20.0889 12C20.0864 14.121 19.2428 16.1544 17.743 17.6542C16.2433 19.1539 14.2099 19.9976 12.0889 20Z" fill="black"/>
</svg>
