<svg width="19" height="22" viewBox="0 0 19 22" fill="none" xmlns="http://www.w3.org/2000/svg">
<path fill-rule="evenodd" clip-rule="evenodd" d="M4.23569 5.28651C4.23569 2.36685 6.49012 0 9.27111 0C12.0521 0 14.3065 2.36685 14.3065 5.28651C14.3065 8.20617 12.0521 10.573 9.27111 10.573C6.49012 10.573 4.23569 8.20617 4.23569 5.28651ZM9.27111 1.86583C7.47165 1.86583 6.0129 3.39732 6.0129 5.28651C6.0129 7.17571 7.47165 8.7072 9.27111 8.7072C11.0706 8.7072 12.5293 7.17571 12.5293 5.28651C12.5293 3.39732 11.0706 1.86583 9.27111 1.86583Z" fill="black"/>
<path fill-rule="evenodd" clip-rule="evenodd" d="M4.53189 14.3047C3.0596 14.3047 1.86608 15.5577 1.86608 17.1034V18.5815C1.86608 18.604 1.88161 18.6232 1.90277 18.6268C6.78269 19.4633 11.7595 19.4633 16.6395 18.6268C16.6606 18.6232 16.6761 18.604 16.6761 18.5815V17.1034C16.6761 15.5577 15.4826 14.3047 14.0103 14.3047H13.6065C13.5752 14.3047 13.5442 14.3099 13.5145 14.32L12.4891 14.6716C10.3981 15.3884 8.14414 15.3884 6.05316 14.6716L5.02769 14.32C4.99801 14.3099 4.96698 14.3047 4.93575 14.3047H4.53189ZM0.0888672 17.1034C0.0888672 14.5273 2.07808 12.4389 4.53189 12.4389H4.93575C5.15434 12.4389 5.37155 12.4751 5.57934 12.5464L6.60481 12.8979C8.33733 13.4919 10.2049 13.4919 11.9374 12.8979L12.9629 12.5464C13.1707 12.4751 13.3879 12.4389 13.6065 12.4389H14.0103C16.4641 12.4389 18.4534 14.5273 18.4534 17.1034V18.5815C18.4534 19.5184 17.8066 20.3173 16.9258 20.4683C11.8562 21.3372 6.68598 21.3372 1.6164 20.4683C0.735633 20.3173 0.0888672 19.5184 0.0888672 18.5815V17.1034Z" fill="black"/>
</svg>
