<svg width="29" height="32" viewBox="0 0 29 32" fill="none" xmlns="http://www.w3.org/2000/svg">
<path fill-rule="evenodd" clip-rule="evenodd" d="M25.2154 16.5067C25.2154 18.5529 25.0456 20.0501 24.1845 21.8155C23.6994 22.8136 23.1536 23.7743 22.3895 24.5853C21.1827 25.8704 19.7698 26.9185 18.1021 27.5173C14.1483 28.9397 9.80025 27.9104 6.88337 24.9097C5.06411 23.0382 3.74212 20.1873 3.74212 17.4237C3.74212 15.3713 3.8816 14.3357 4.64569 12.5017C5.07624 11.4661 5.80395 10.2559 6.56804 9.47607L6.95614 9.03315C7.08956 8.88967 7.22903 8.79609 7.3867 8.63389C8.73295 7.24898 7.46554 6.05122 6.58016 6.05122C6.04045 6.05122 5.51287 6.54405 5.11263 6.94331L4.3546 7.79172C4.19693 7.96015 4.1181 8.06621 3.97862 8.24712C3.72393 8.56527 3.51168 8.87719 3.28731 9.22654C2.45651 10.5116 1.70455 12.0962 1.33463 13.8491C0.564482 17.5173 1.11026 21.4162 3.11144 24.5105L4.08778 25.9141C4.63356 26.6377 5.43403 27.3801 6.13141 27.9727C8.7087 30.1499 12.6322 31.3726 15.9554 30.8985C18.09 30.5928 19.2847 30.1624 20.8613 29.3202C24.4392 27.4051 26.8043 23.843 27.6957 19.8442C27.8048 19.3389 28.0171 17.3676 27.9989 16.8435C27.9746 16.1074 27.7927 14.5603 27.629 13.9053C27.3985 12.9695 27.2045 12.2085 26.8346 11.4037C26.2949 10.2247 25.8219 9.35754 25.0578 8.35317C24.5969 7.74181 24.0754 7.12422 23.4932 6.64387C23.1233 6.33819 23.093 6.12608 22.4562 6.01379C22.0196 5.93893 21.5648 6.18223 21.3344 6.41928C20.6066 7.16789 20.928 7.99758 21.5587 8.63389C21.965 9.04563 22.2622 9.23901 22.7473 9.88156C24.0996 11.6782 25.2094 13.8991 25.2094 16.5067H25.2154Z" fill="white" stroke="white"/>
<path fill-rule="evenodd" clip-rule="evenodd" d="M13.1897 2.63619V13.1068C13.1897 13.6094 13.3123 13.9957 13.5575 14.2715C14.1031 14.8968 15.0901 14.8968 15.6357 14.2715C15.8809 13.9895 16.0035 13.6033 16.0035 13.1068V2.63619C16.0035 2.1335 15.8809 1.74729 15.6357 1.47143C14.8817 0.607055 13.1897 0.89518 13.1897 2.63619Z" fill="white" stroke="white"/>
</svg>
